<svg xmlns="http://www.w3.org/2000/svg" viewBox="0 0 150 120">
    <path d="M74.953 108.715a2.7 2.7 0 0 1 1.852.447 1.073 1.073 0 0 1 .086.543l.015 1.8c0 .3-.107.451-.326.453-.254 0-.318-.237-.443-.707-.063-.235-.149-.557-.284-.963-.258-.764-.516-1-1.015-1a.888.888 0 0 0-.749.43 2.126 2.126 0 0 0-.289 1.182c.007.892.252 1.112 1.431 2.167l.191.171c.964.862 1.961 1.753 1.974 3.395a3.675 3.675 0 0 1-.729 2.294A2.764 2.764 0 0 1 74.426 120h-.016c-.661 0-1.931-.315-1.936-1.057-.021-2.547.042-2.751.4-2.754.268 0 .307.209.373.553a8.507 8.507 0 0 0 .275 1.1c.321.991.756 1.454 1.371 1.454h.01a1.118 1.118 0 0 0 .907-.478 2.127 2.127 0 0 0 .363-1.281 3.217 3.217 0 0 0-1.684-2.666 3.885 3.885 0 0 1-1.969-3.335 2.628 2.628 0 0 1 2.433-2.821Zm-13.2-.261c.115.008.225.024.366.045.244.036.578.086 1.2.129.244.016.533.016.789.016h.162c.156 0 .291 0 .395.01a.422.422 0 0 1 .218.056.241.241 0 0 1 .092.231c-.02.294-.181.31-.5.342-.086.009-.19.019-.315.035-.11.014-.23.176-.253.51l-.569 8.311c-.031.452-.031.452.505.665.072.029.13.049.179.065.166.056.309.1.292.346a.3.3 0 0 1-.343.292h-.048a3.518 3.518 0 0 1-.3-.04c-.233-.036-.553-.086-1.073-.121a13.107 13.107 0 0 0-1.32-.039h-.266a.3.3 0 0 1-.213-.093.343.343 0 0 1-.066-.26c.02-.3.358-.323.484-.333.5-.038.6-.1.642-.786l.548-8.009c.034-.5-.045-.567-.3-.649a5.116 5.116 0 0 0-.3-.083c-.239-.062-.4-.1-.38-.361.002-.091.048-.293.371-.278Zm-13.871-1.709h.071c.1.015.2.04.32.071a8.736 8.736 0 0 0 .908.185c.6.092 1.007.118 1.224.132.087.006.144.01.172.015a.36.36 0 0 1 .234.121.286.286 0 0 1 .058.226c-.039.253-.2.267-.62.3-.3.015-.449.106-.524.593L48.7 115.07c-.15.979-.06 2.186 1.219 2.381.922.143 1.636-.7 1.864-2.183l.9-5.878c.172-1.12-.016-1.177-.253-1.249-.351-.1-.492-.186-.454-.439.019-.123.1-.323.442-.271a1.611 1.611 0 0 1 .2.052 4.192 4.192 0 0 0 .624.142 4.055 4.055 0 0 0 .64.054 1.577 1.577 0 0 1 .248.016.358.358 0 0 1 .328.387c-.043.288-.28.3-.583.282-.1-.006-.423-.018-.525.654l-.943 6.16c-.375 2.446-1.5 3.049-2.514 3.049a2.852 2.852 0 0 1-.429-.034 3.147 3.147 0 0 1-1.826-.786 2.434 2.434 0 0 1-.528-2.187l1.095-7.157c.071-.464.009-.551-.061-.575-.41-.14-.576-.238-.538-.486a.3.3 0 0 1 .342-.252Zm50.33.069a.2.2 0 0 1 .151.031.287.287 0 0 1 .1.2L99.866 116c.131.832.274.964.662.954h.123c.347 0 .5.025.539.283a.3.3 0 0 1-.055.256.381.381 0 0 1-.235.11c-.059.009-.208.024-.4.042-.333.032-.789.076-1.1.125s-.7.131-1.035.2c-.263.056-.5.106-.642.129h-.035a.237.237 0 0 1-.141-.047.364.364 0 0 1-.135-.244c-.047-.3.193-.372.386-.43.472-.148.653-.4.587-.827l-1.159-7.366a1.114 1.114 0 0 0-.145-.465.13.13 0 0 0-.146-.053 1.363 1.363 0 0 0-.349.2 1.329 1.329 0 0 1-.44.233.226.226 0 0 1-.17-.043.256.256 0 0 1-.1-.167c-.033-.2.084-.284.3-.43.129-.089.306-.21.554-.415.661-.543.991-.848 1.168-1.012s.222-.204.312-.218Zm14.352-3.023a.282.282 0 0 1 .213.03.4.4 0 0 1 .174.248 3.327 3.327 0 0 1-.007.669c-.034.918-.125 3.355-.266 9.651-.007.326-.011.586-.013.794-.01.792-.011.914-.258.98a.534.534 0 0 1-.134.019.275.275 0 0 1-.279-.238c-.044-.167.017-2.446.116-5.9.054-1.906.11-3.876.093-4.012-.052-.194-.058-.221-.494-.106l-1.86.49c-.929.245-1.094.411-1.156.473a.224.224 0 0 1-.106.068.163.163 0 0 1-.127-.017c-.079-.046-.118-.148-.164-.32s-.093-.367-.141-.561c-.051-.209-.1-.425-.163-.645a.421.421 0 0 1 .016-.328.392.392 0 0 1 .253-.156c.3-.079.672-.147 1.065-.219.461-.084.938-.171 1.387-.289a12.43 12.43 0 0 0 1.093-.368c.286-.108.558-.209.756-.262Zm-77.507.358c.058-.223.216-.3.472-.24.076.02.165.052.28.093.214.077.508.182.979.305.187.049.4.089.617.132.28.055.6.116.949.209a2.229 2.229 0 0 1 1.536 1.311 3.516 3.516 0 0 1 .087 2.287c-.456 1.74-1.736 2.756-3.044 2.414a4.5 4.5 0 0 1-.873-.328l-.088-.042-.076-.034c-.01.03-.023.075-.041.142l-.889 3.4c-.057.217-.073.425.352.581.326.118.542.2.467.483a.4.4 0 0 1-.126.225.242.242 0 0 1-.154.052.351.351 0 0 1-.089-.012c-.07-.018-.136-.043-.226-.076a10.078 10.078 0 0 0-1.109-.343 10.576 10.576 0 0 0-1.156-.252 2.816 2.816 0 0 1-.293-.057.294.294 0 0 1-.235-.406c.085-.324.361-.268.627-.214.141.029.341.021.444-.373l2.123-8.11c.127-.487.072-.607-.082-.667-.359-.14-.519-.229-.454-.479Zm-12.071-4.591a.577.577 0 0 1 .431.065c.025.01.058.027.11.053.18.092.6.306 1.846.808.872.352 1.44.548 1.817.679.194.067.343.119.464.167.283.115.348.272.231.562l-.8 1.977c-.13.32-.289.334-.4.288-.213-.086-.2-.208-.174-.5.013-.143.032-.347.043-.645.04-1.057-.19-1.443-1.07-1.8-.264-.107-.457-.171-.539-.136-.045.019-.083.081-.142.226l-1.277 3.161c-.016.038-.052.127-.04.152s.042.051.2.115c1.006.406 1.006.406 1.422-.036.129-.137.223-.251.3-.341.169-.2.28-.337.468-.262.256.1.146.375.1.491-.06.15-.148.337-.244.543-.113.241-.241.515-.346.776-.136.337-.23.615-.312.859-.06.18-.112.334-.167.468-.094.233-.173.379-.3.431a.255.255 0 0 1-.2 0c-.225-.09-.181-.334-.115-.7.021-.116.045-.251.066-.405.107-.735.109-.749-.718-1.083-.442-.178-.442-.179-.512 0l-1.2 2.974a2.4 2.4 0 0 0-.275 1.153c.044.228.225.387.624.548.748.3 1.279.075 2.029-.867.116-.144.209-.262.285-.358.329-.416.389-.491.567-.419a.222.222 0 0 1 .158.214 1.014 1.014 0 0 1-.1.349l-.893 2.211a.434.434 0 0 1-.206.262.288.288 0 0 1-.112.021.674.674 0 0 1-.244-.06c-.116-.047-.26-.113-.45-.2-.357-.165-.9-.414-1.731-.751s-1.321-.506-1.7-.638c-.249-.087-.454-.158-.693-.255a.445.445 0 0 1-.254-.195.292.292 0 0 1 0-.247.324.324 0 0 1 .442-.233c.547.1.661.015.82-.38l3.113-7.708c.137-.338.111-.426-.186-.624l-.086-.054c-.156-.1-.317-.2-.211-.458a.306.306 0 0 1 .161-.198Zm99.218.771a2.431 2.431 0 0 1 3.279 1.619c.5 1.223.289 2.246-.091 4.1l-.263 1.315a10.043 10.043 0 0 0-.35 2.013.1.1 0 0 0 .025.041.078.078 0 0 0 .038-.009l1.806-.735c.457-.186.491-.471.4-1.081-.04-.28-.092-.5-.13-.655-.068-.281-.112-.466.069-.54.243-.1.323.1.408.3l1.051 2.583a.741.741 0 0 1 .077.289.256.256 0 0 1-.182.223c-.048.02-.212.079-.437.16-.49.177-1.231.446-1.705.639-.942.383-1.354.589-1.575.7l-.2.1a.251.251 0 0 1-.093.019.271.271 0 0 1-.244-.186c-.044-.108-.038-.171.017-.777.058-.646.167-1.847.338-4.337a6.664 6.664 0 0 0-.411-3.3 3.594 3.594 0 0 0-.9-1.368.928.928 0 0 0-.936-.244c-.716.292-.791 1.526-.5 2.54.022.078.087.312-.134.4a.253.253 0 0 1-.2 0 .316.316 0 0 1-.152-.176 4.106 4.106 0 0 1-.23-1.822 2.046 2.046 0 0 1 1.221-1.811Zm-84.33 4.92c-.526-.139-.682.033-.772.375l-1 3.8c-.048.185.069.316.349.389.729.19 1.555-.714 1.92-2.106a3.377 3.377 0 0 0 .078-1.756.921.921 0 0 0-.575-.702Zm95.75-10.734c1.31-.848 3.616.546 5.366 3.243a9.53 9.53 0 0 1 1.523 3.767 2.391 2.391 0 0 1-.75 2.452 1.576 1.576 0 0 1-.871.244 3.3 3.3 0 0 1-1.675-.561 10.692 10.692 0 0 1-4.343-6.693 2.39 2.39 0 0 1 .75-2.452ZM10.242 92.8c.306-.459 2.46.665 3.073 1.07a3.67 3.67 0 0 1 1.717 2.947 6.778 6.778 0 0 1-1.315 4 7.766 7.766 0 0 1-2.725 2.561 3.855 3.855 0 0 1-1.779.479 2.923 2.923 0 0 1-1.636-.5c-.252-.167-.48-.34-.7-.507s-.4-.305-.607-.44c-.6-.395-.955-.6-1.192-.729a4.718 4.718 0 0 1-.3-.178.215.215 0 0 1-.092-.139.378.378 0 0 1 .068-.276c.167-.253.359-.165.682.012.238.145.447.181 1-.652l4.276-6.456a.678.678 0 0 0 .154-.349c0-.043-.028-.095-.174-.192a1.877 1.877 0 0 0-.208-.116 1.717 1.717 0 0 1-.158-.086c-.226-.149-.197-.282-.084-.449Zm124.006 2.171a.5.5 0 0 0-.28.081c-.293.19-.333.641-.119 1.34a15.755 15.755 0 0 0 1.846 3.507c2.252 3.471 3.267 3.85 3.724 3.554s.525-1.376-1.728-4.847a15.756 15.756 0 0 0-2.45-3.114 1.7 1.7 0 0 0-.993-.526Zm-121.64-.587-.081.012a1.036 1.036 0 0 0-.557.489l-4.174 6.3c-.476.718-.442 1.181.111 1.548 1.032.681 2.8-.413 4.287-2.665 1.682-2.54 2.031-4.763.868-5.532a.673.673 0 0 0-.535-.141ZM58.626 40.21c.185-.151.458-.705.839-.279.193-.024.107.351.112.559s0 .452 0 .614c-.088.219.145.116.168.223.154-.024.052.208.168.223v1.117a4.891 4.891 0 0 0 0 1.061c.1.348.539.345.447.726a3.918 3.918 0 0 1 .671.112c.009 0 .017.046.056.056s.081-.013.112 0 .084.1.111.112.239.006.28.056.043.039.112.056c0 0 .164.051.168.056a.386.386 0 0 0 .168.112c.02.007.1-.015.112 0a.389.389 0 0 0 .168.112c.02.007.1-.015.111 0a.391.391 0 0 0 .168.112c.02.007.1-.015.112 0 .037.046.043.039.112.056 0 0 .164.051.168.056.038.046.043.039.112.056s.1.083.168.112c.18.073.407.141.615.223.515.2 1.108.445 1.677.67a3.8 3.8 0 0 0 .391.168 1.336 1.336 0 0 1 .224.056c.028.011.091.105.112.112.05.015.119-.019.168 0 .028.011.091.105.112.111.05.015.12-.019.168 0 .028.012.091.106.112.112.05.015.119-.019.168 0 .028.011.091.106.112.112.05.015.119-.019.168 0 .028.011.091.106.112.112.133.04.176 0 .335.056.02.007 0 .053.056.056a.238.238 0 0 1 .056 0c.028.012.092.106.112.112.049.015.121-.021.168 0s.08.094.112.112.1-.017.111 0c.048.059.193.062.335.112.029.01.091.105.112.111.05.015.119-.019.168 0 .028.011.091.106.111.112.05.015.12-.019.168 0 .029.011.091.106.112.112.107.032.149.006.224.056a.219.219 0 0 0 .279 0 .937.937 0 0 1 .168-.112c.148-.151-.193-.289-.112-.559.061-.275.324-.347.5-.5a2.322 2.322 0 0 1-.28-1.4c0-.005.054-.012.056-.056.011-.2.182-.605.391-.614.163-.007.139.03.224.112.013.012.106.044.112.056.018.04-.032.2 0 .224.007.005.053-.007.056 0s-.016.1 0 .111c.065.053 0 .168.056.224h.056a1.058 1.058 0 0 1-.056.559 1.114 1.114 0 0 0 .224.447c.019.3-.3.257-.335.5.035.18.247.21.391.335.047.041.052.074.112.112a.681.681 0 0 1 .112.056c.017.019-.019.1 0 .112.053.043.082.041.112.111.009.02-.016.1 0 .112.073.06-.011.024 0 .112a1.29 1.29 0 0 1 .056.223 3.847 3.847 0 0 0 0 .559 1.271 1.271 0 0 0 .112.223c.035.08.017.143.056.223.013.027.052-.006.056.056 0 .08.107.121.112.223 0 .036.044.069.056.112.019.069-.017.153 0 .223a2.967 2.967 0 0 1 .056.67 2.116 2.116 0 0 0-.056.223 1.976 1.976 0 0 1 0 .223c0 .008-.054.01-.056.056a.718.718 0 0 1 0 .168c-.1.085-.14.459-.224.67.042.237.31.249.5.336.048.045.033.153.111.167-.008.23.011.46 0 .67a2.845 2.845 0 0 1-.056.559c-.062.188-.171.216-.279.335-.017.018.019.1 0 .112-.078.064-.2.09-.28.223v2.682l.95.391s.187-3.77.224-4.861c0-.04.1-2.09.111-2.346.011-.2.168-3.116.168-3.185s-.161-.358 0-.5h.335c.232-.032.066.414.056.559.035.619.1 2.185.112 2.57.021.5.1 3.37.112 4.3.019 1.372.064 3.86.064 3.86l8.1 2.813V58.65l.165-.041.053-.129.392-.056v-2.738a.182.182 0 0 1 .035-.017l-.007-.145.172.01.024.124.048.041.007 2.7.074.188.03 2.2.289.111.013-4.243.209-.468h.895V53.06s-.051-.28.056-.335c.242-.067.168.279.168.279v3.28l.172.351v1.676h.335a1.268 1.268 0 0 0 .335.056c.012.126.167.108.264.149.008-.053.016-.093.016-.093v-2.866c0-.067-.008-.311 0-.429s-.055-.3.112-.335c.284.041.168.838.168.838v3.01a1.19 1.19 0 0 0 .171.118v3.408c1.476-.107 2.939-.228 4.416-.335a8.782 8.782 0 0 0 .168-2.459c-.011-.113-.05-.148-.056-.223-.027-.355.045-.648-.112-.894a.811.811 0 0 1-.112-.28c-.007-.035.009-.077 0-.112s-.055-.074-.056-.056c0-.253.22-.451.28-.615.009-.307-.294-.3-.336-.559-.023-.153.1-.183.168-.279a.574.574 0 0 0 .112-.28c.058-.272-.07-.655 0-.894s.148-.427.5-.391c.486.049.393.54.336 1.117.183.165.4.083.727.112.107.01.154.055.223.056.164 0 .33-.046.5-.056.517-.028 1.034-.036 1.565-.112.054-.008.129-.042.224-.056.04-.006.2.026.224 0v-.056a4.336 4.336 0 0 1 .447-.056c0-.605-.078-1.1.335-1.173.339-.06.49.181.559.5.062.287-.068.627 0 .894.087.2.32.152.5.223.023.009 0 .053.056.056a1.5 1.5 0 0 1 .28.112c.02.008.1-.015.112 0 .151.185.723.25 1.006.391.015-.28-.018-.665 0-1.006 0-.088-.027-.213.056-.223-.049-.179.145-.116.168-.223.219-.017.548.018.559.223 0 .051.049.129.056.223.106 1.47-.135 3.278 0 4.8 0 .03-.043.3 0 .335s.092-.025.112.056-.017.19 0 .279c1.931-.137 3.912-.225 5.87-.335.057-.588-.074-1.276 0-1.9 0-.017-.012-.1 0-.112a1.26 1.26 0 0 0 .279-.447h.727a2.337 2.337 0 0 1 .112.559c0 .09-.1.14-.112.223a1.524 1.524 0 0 0 0 .28 13.3 13.3 0 0 0 .448 1.676 9.287 9.287 0 0 0 1.789.782 1.487 1.487 0 0 1 .168.056c.032.017.085.1.111.112s.079-.008.112 0c0 0 .164.051.168.056.037.045.043.039.111.056.05.012.1.038.168.056.052.013.261.115.391.168a1.349 1.349 0 0 1 .168.056c.03.016.088.1.112.112.1.038.243.019.335.056.034.013.084.1.112.112s.079-.008.112 0c.057.014.123.074.224.112.02.007.1-.015.112 0a2.829 2.829 0 0 0 .615.279c.106-.1.053-.29.056-.447a3.88 3.88 0 0 1 0-.894c.02-.078.188-.238.224-.391h.671c.118.569-.1 1.069.112 1.62a.719.719 0 0 0 .056.112c.1.156.111.571.28.726.053.049.15.035.223.112.017.018-.019.1 0 .112a.874.874 0 0 1 .279.28c.031.216-.142.23-.168.391-.06.221-.142.541 0 .67s.44.365.615.559c-.04.618.1 1.191-.111 1.564-.021.036-.094.08-.112.112s.017.1 0 .112a1.976 1.976 0 0 0-.335.5v5.14h2.18v1.173c-.032.274.427.058.447.28v1.341c.054.277-.353.094-.447.224V81.5c.769.088 1.858.056 2.907.056h1.509a10.939 10.939 0 0 1 1.286 0v2.123c.048.138.389-.016.447.112v1.453c-.081.086-.286.049-.447.056v5.531c.083.111.22.053.335.056.761.02 1.782-.014 2.628 0v2.067H23.8v-2.069h1.956v-19.5c-.13-.149-.5-.059-.671-.167v-1.4c.024-.139.182-.208.28-.28s.229-.144.335-.223c.031-.024-.009-.053.056-.056a.552.552 0 0 0 .112-.056c.019-.014.039-.1.056-.112s.088.017.112 0c.1-.075.173-.2.279-.28.159-.12.332-.192.5-.335.017-.014.041-.1.056-.112s.088.017.112 0c.105-.077.173-.2.279-.28.02-.015.1.019.112 0a3.52 3.52 0 0 1 .559-.447c.032-.023-.009-.052.056-.056a.552.552 0 0 0 .112-.056c.02-.014.039-.1.056-.112s.088.018.111 0 .039-.1.056-.111.09.017.112 0c.076-.062.111-.153.224-.224.086-.055.127-.1.224-.167.433-.323.871-.614 1.286-.95.036-.06.109-.073.168-.111.088-.057.167-.132.279-.223a1.948 1.948 0 0 1 .224-.168c.026-.017.041-.047.056-.056.039-.023.124-.024.168-.056s.065-.131.112-.167.118-.019.168-.056c.019-.014.039-.1.056-.112a.825.825 0 0 0 .224-.112c.094-.072.182-.151.279-.223a4.045 4.045 0 0 0 .559-.447v-2.007c.039-.308-.235.223-.224-.112v-.391c.172.042.107-.153.279-.111.064-.2.317-.2.391-.391h.615a2.991 2.991 0 0 0 .056-.95v-1.955a2.691 2.691 0 0 1 .056-.894c.05.035.1.068.112 0 .2 0 .107.282.111.391.04.981-.03 2.247 0 3.3.078.305.64-.091.671.168v.335c.022.134-.255-.031-.168.167v1.006c.025.081.049-.006.112 0a1.8 1.8 0 0 1 .447-.335c.038-.028.076-.086.111-.112s.076-.029.112-.056.076-.086.112-.111.076-.029.111-.056.076-.086.112-.112.076-.029.112-.056.076-.086.111-.111l.112-.056a2.62 2.62 0 0 0 .391-.335c0-.252.007-.49 0-.726s-.045-.437-.056-.67c-.061-1.336-.016-2.966-.112-4.414-.025-.383 0-.832 0-1.229 0-.519.108-1.188-.111-1.452-.134-.161-.425-.275-.5-.559-.093-.338.068-.556 0-.95.063-.06.1-.1.168-.167.031-.03.053.008.056-.056s.075-.02.112-.056c.1-.1.173-.231.279-.335a8.751 8.751 0 0 1-.056-1.509 5.064 5.064 0 0 1-.056-.838.6.6 0 0 1 .111-.335c.026-.04.086-.076.112-.112a.292.292 0 0 0 .056-.112v-.615a.313.313 0 0 1 .056-.167c.036-.037.131-.019.168-.056.139-.141.127-.217.168-.5 0-.017-.012-.1 0-.112s.055 0 .056 0a.665.665 0 0 0 0-.447c-.007-.02.015-.1 0-.112s-.053.007-.056 0 .016-.1 0-.112-.053.007-.056 0 .016-.1 0-.112a1.187 1.187 0 0 1-.168-.615c.027-.486.333-.6.559-1.006v-.95c.106.02.067-.13.112-.168.073-.059.372-.38.615-.167.185-.036.137.118.168.223 0-.007.095.025.056.056 0 0-.094.08-.056.111h.056c.024.191-.018.478 0 .726-.078.283.256.153.224.391v2.067c.012.249.325.2.391.391.1.106.041.369.056.558 1.659-.18 3.285-.466 4.919-.726.163-.026.287-.009.5-.056.046-.01.056-.048.111-.056.51-.076 1.052-.126 1.565-.223.054-.01.115.012.168 0 .509-.11 1.348-.242 1.956-.335.33-.051.582-.057.95-.112 0 0 .013-.054.056-.056.264-.014.561-.07.839-.112.718-.107 1.418-.2 2.124-.335.054-.01.115.012.168 0s.056-.048.112-.056c.334-.049.608-.055.95-.112 1.6-.267 3.462-.572 5.2-.782.111-.146.025-.284.056-.447.025-.13.121-.244.112-.391 0-.021-.019-.249-.056-.279a.4.4 0 0 1-.112-.167c-.007-.02.015-.1 0-.112a1.075 1.075 0 0 1-.168-.782c.012-.049.038-.1.056-.168s.039-.024.056-.056a1.2 1.2 0 0 1 .056-.167c.02-.026.1-.031.112-.056.037-.056.013-.122.056-.168.061-.066.178-.173.279-.28a1.771 1.771 0 0 1-.056-.559.579.579 0 0 1 0-.111c.006-.022.056-.072.056-.056 0-.045-.066-.056-.056-.112a.792.792 0 0 1 .056-.112c.012-.026-.011-.103.004-.116Zm-19.9 49.055h-.95v1.564c.218.117.643.028.95.056Zm33.149-9.777c-.065.009-.061.088-.056.167v11.23h2.571v-11.23c-.862-.033-1.625-.165-2.515-.168Zm-36.056 9.777h-8.5c-.065.009-.06.088-.056.168.006.284-.007.6 0 .838a1.394 1.394 0 0 0 .056.28c0 .028-.055.073-.056.055 0 .07.046.082.056.168 0 0-.067 0-.056.056 0 .009.091 0 .056.056h8.5Zm35.273 0H57.843c-.065.009-.061.088-.056.168v1.452h13.3Zm-14.143 0H39.564c-.065.009-.061.088-.056.168v1.452h17.441Zm34.6 0H75.116c-.065.009-.06.088-.055.168v1.452h16.49Zm4.137-2.682v4.3h.614v-4.244c-.208-.024-.31-.032-.614-.056Zm21.074-1.508h-4.807V87.7h3.913v3.129a3.062 3.062 0 0 1 .894-.056Zm-2.627 4.19H97.98c-.065.009-.061.088-.056.168v1.341c5.2.074 10.638-.1 15.764 0a1.436 1.436 0 0 0 .447 0Zm6.093-4.135h-2.4a.153.153 0 0 0-.111.168c.035 1.808-.072 3.759.056 5.475h2.459Zm-25.1 4.134h-2.4v1.509h2.4ZM64.048 85.41h-.224v3.24q-.065.289.224.224c.2 0 .106-.24.112-.335.053-.879.032-1.946 0-2.738 0-.1.091-.381-.112-.391Zm-15.6 0h-.224v3.24q-.065.289.224.224c.2 0 .106-.24.111-.335.052-.879.032-1.946 0-2.738 0-.1.092-.381-.111-.391Zm-5.748-.016-.059.015h-.224v.167c.039.937-.052 2.092 0 2.961 0 .074-.085.347.112.335.215.045.249-.055.266-.175l.014-.1a3.229 3.229 0 0 0-.056-.5c-.01-.371 0-.8 0-1.229a4.821 4.821 0 0 1 .056-1.229c-.148.017.052-.313-.168-.223Zm28.395-2c-6.445 0-12.76.135-19.23.111a5.429 5.429 0 0 0-.056 1.285v4.079h1.509v-3.348c-.025-.161-.422.05-.447-.111.036-.225-.073-.594.056-.726h3.019v.782c-.188.017-.485-.075-.447.168v3.184a7.426 7.426 0 0 0 1.453.056v-5.308h.448c.116.033.367-.069.391.056v5.2a5.426 5.426 0 0 0 1.286.056h4.192v-3.357c-.025-.161-.422.05-.447-.111.036-.225-.073-.594.056-.726h3.075v.782c-.14.046-.481-.109-.447.112v3.3h5.59Zm-32.367.279h-.95v5.14a1.7 1.7 0 0 0 .95 0ZM91.5 83.4H75.116c-.065.009-.06.088-.055.167v5.308h15.484a3.407 3.407 0 0 0 1.007-.056v-4.08A5.88 5.88 0 0 0 91.5 83.4Zm-55.681-1.343c-2.872.035-5.732.082-8.609.112.115 1.934.03 4.5.056 6.7h2.628v-4.8a20.3 20.3 0 0 0 2.068-.056c.2-.012.366.006.559 0a3.568 3.568 0 0 1 .95 0v4.861h2.348v-5.2c-.078-.146-.474.027-.559-.112a3.985 3.985 0 0 0 .056-1.062h.391c.105.012.134-.052.15-.129l.018-.094c-.083-.007-.052-.131-.056-.22Zm61.323-1.285a3.734 3.734 0 0 0-1.062-.056h-3.41c-.012 2.75.1 5.377.056 8.157h2.4v-2.29c-.043-.162-.461.051-.5-.112V85.8c1.133.012 2.482-.017 3.522 0 .169 0 .418-.046.448.056v.67h-.671v2.347h12.3v-3.8h-3.577a4.528 4.528 0 0 1-1.174-.056v-2.68c-2.57.04-5.383-.054-7.882 0-.2 0-.445.043-.447 0ZM47.16 83.543l-.944.023c-.069 0-.081.048-.168.056-1.095.1-2.2 0-3.3 0h-1.619a8.365 8.365 0 0 0-1.621.056v5.2h2.348v-3.412c-.025-.162-.422.05-.447-.112.036-.225-.073-.594.056-.726h3.074v.783c-.14.046-.481-.109-.447.111v3.353h3.522v-3.409c-.152-.035-.444.071-.5-.056.036-.225-.073-.594.056-.726h3.074v.782c-.127.04-.436-.1-.391.112v3.3h1.118v-5.312c-1.582.056-3.184-.074-4.752 0Zm-14.081.857c-.944.025-1.825.113-2.795.112.076 1.205-.1 2.71 0 3.855.012.132-.073.408.168.391 0-.074.1-.051.112-.112a2.685 2.685 0 0 1-.056-.894v-2.011a3.006 3.006 0 0 1 .056-.95c.562.026 1.06-.047 1.509-.055h.391c.077 0 .283-.05.335.055.074 1.151-.1 2.6 0 3.688.014.159-.058.366.168.391 0-.088.142-.044.111-.168Zm21.075 1.01h-.335c0 .071-.072.077-.056.167.033.784-.045 1.854 0 2.626.013.234-.135.688.223.67.289-.043.16-.521.168-.726.033-.917-.025-1.912 0-2.738Zm59.31-2.291c-.19.015-.453-.043-.559.056v.95c.106.1.37.041.559.056Zm-6.932-9.666c-.065.009-.061.088-.056.168v10.56h1.062V73.565a7.01 7.01 0 0 0-1.006-.112Zm8.05 9.721a.764.764 0 0 0-.615 0v.112c-.031.338.051.7 0 .894h.615Zm-2.18 0c-.106-.1-.369-.041-.559-.056v1.062h.559Zm4.36 0a.642.642 0 0 0-.559 0c.047.255-.028.614 0 1.006h.559Zm-5.813-6.816h-2.8v7.822h3.13c.117-.218.028-.643.056-.95.03-.236-.437.027-.391-.223Zm4.752 6.816a.764.764 0 0 0-.615 0v1.006h.615Zm4.975-1.005h-2.683v1.509h2.683Zm-30.242-.335h-.223V82c.07.3-.164.909.168.949.185-.019.088-.322.112-.5-.018-.205.047-.495-.056-.614Zm1.118.111c-.106-.1-.369-.04-.559-.056v1.061h.559Zm-3.69-.279h-.168v.167c.074.333-.171 1.03.168 1.061a2.792 2.792 0 0 0 0-1.229Zm.7.05-.145.005V82.9h.5v-1.122a1.217 1.217 0 0 0-.5-.056Zm1.085.061h-.223c-.008.066-.1.127 0 .167a1.967 1.967 0 0 0 0 .5c0 .161-.095.374 0 .447h.279a4.394 4.394 0 0 0-.056-1.117Zm-2.46-.111h-.279v.167c.009.145-.012.358 0 .559.01.175-.093.51.168.447.227.022.062-.348.112-.5Zm-1.733-.112h-.335v.167c.085.257-.116.886 0 1.062-.013-.019.145.065.111.056.07.019.153-.014.224 0Zm.95.112c-.072-.077-.243-.055-.391-.056a2.792 2.792 0 0 0 0 1.229h.335a4.8 4.8 0 0 0 .06-1.172ZM84.4 81.5h-.112v.168c.006.163-.007.4 0 .614.007.194-.081.534.112.5.351.072.186-.373.224-.614-.016-.282.087-.683-.224-.671Zm-.727-.056h-.223c0 .071-.072.077-.056.168.109.365-.261 1.256.279 1.173.107-.024.054-.209.057-.28a3.508 3.508 0 0 0-.057-1.061ZM110 77.42v5.364h-1.453v-5.2c-.005-.079-.009-.158.056-.168H110Zm-28.064 3.967H81.6v.167c.013.176-.018.443 0 .67s-.091.557.224.5c.2-.04.077-.407.112-.615Zm-.95-.056h-.168v.169c.007.188-.008.436 0 .671.008.211-.074.491.112.559.157-.125.1-.385.112-.671a1.756 1.756 0 0 0-.056-.726Zm1.509.056v1.341h.335v-1.285c-.171.04-.2-.057-.335-.056Zm-2.236-.112h-.28v.167c.008.183-.01.433 0 .67s-.112.621.168.559c.172.046.1-.142.112-.223.046-.4-.036-.834 0-1.173Zm-1.052-.066-.066.01v.168c.013.2-.017.476 0 .726s-.1.605.224.559c.109-.049.053-.187.056-.279.015-.373-.011-.785 0-1.117-.135.023-.121-.1-.279-.056Zm-.569.01H78.3v1.173c.012.1-.056.28.111.223h.168c.11-.049.053-.187.056-.279.015-.373-.011-.785 0-1.117Zm-.95-.056h-.335v.168c.012.309-.017.743 0 1.006.006.1-.064.324.111.279h.168c.109-.037.053-.206.056-.279.016-.408-.012-.829 0-1.173Zm-.95-.056h-.392v1.453a.859.859 0 0 0 .392 0Zm-1.613-.119-.177.012v1.5c.167.112.527.032.782.056v-1.504a3.606 3.606 0 0 0-.782-.052Zm-30.305-.551c-2.394.047-4.75.132-7.155.167v1.9c2.365-.039 4.73-.077 7.155-.056Zm1.174-.056c-.216-.03-.273.1-.5.056v1.956h.559a14.249 14.249 0 0 0-.061-2.012Zm3.8-.056h-.5V81.5c0 .343-.027.648 0 .894h.5Zm-1.23 0H48v2.067h.559Zm-1.23.056h-.615v2.011h.615Zm3.69-.112h-.559v2.123h.559Zm7.994-.168c-.291-.151-.668-.007-.839 0-.38.016-.784 0-1.174 0-.812 0-1.5.056-2.292.056-.41 0-.791.04-1.174.056a6.3 6.3 0 0 0-1.845.112 14.5 14.5 0 0 0 .056 2.011c2.46.018 4.871-.011 7.267-.056Zm7.491.782h-1.845v1.341h1.845Zm2.18 0H68.3v1.341h.391c-.022-.5.036-.987 0-1.341Zm-1.062 0h-.447v1.341h.447Zm-4.752 0c-.161.007-.366-.031-.447.056v1.285h.447Zm1.118.056c-.081-.087-.286-.049-.447-.056v1.341h.391a5.8 5.8 0 0 0 .055-1.284Zm7.1-1.564H60.75v2.849h1.006V80.94c-.007-.16-.384.048-.391-.112v-.391c.033-.116-.069-.367.056-.391h7.826a4.161 4.161 0 0 1 1.118.056c-.024.255.056.615-.056.782h-.95v1.341h1.733Zm34.321 2.125a1.9 1.9 0 0 0-1.006 0c.058.217-.029.23.056.391.307-.028.732.062.95-.056Zm-1.453-.056h-.279v.447h.279a.729.729 0 0 0 0-.447Zm-1.509 0h-.279v.447h.279Zm-4.137 0h-.5v.447h.5Zm16.267-4.972a5.865 5.865 0 0 0-1.342-.056h-1.453a.153.153 0 0 0-.112.168v5.306h2.851a5.394 5.394 0 0 0 .056-1.285Zm-11.348 4.972h-.334v.447h.335Zm-3.41 0h-.335c.006.161-.031.366.056.447h.279Zm-.783 0h-.279v.447h.279c.091-.183-.012-.214 0-.447Zm2.684 0H101v.447h.727Zm-1.118 0h-.335v.447h.279c.087-.081.049-.286.056-.447Zm-64.788 0c.079-.247-.245-.156-.391-.167a3.757 3.757 0 0 0-.727.056c-1.126.052-2.353.013-3.577.056-1.245.043-2.5-.032-3.69 0-.068.1-.324.011-.224.28-.007.1.056.13.168.111 2.063-.04 4.411-.031 6.429-.111.582-.024 1.161.068 1.677 0 .116-.018.43.074.335-.226Zm39.241-1.789c-.185.02-.088.322-.112.5.133.114.312.042.447.056-.01 0 .031.049.056.056a.814.814 0 0 0 .168 0 8.7 8.7 0 0 1 1.4.112.814.814 0 0 0 .168 0c.653.031 1.223.063 1.845.112 1.076.084 2.385.193 3.354.279h.28c.857.063 1.744.106 2.627.168 2.084.146 4.168.351 6.261.447v-.615c-.1-.112-.256-.1-.391-.112-.168-.015-.382.01-.559 0-.1-.006-.125-.044-.223-.056-.244-.03-.565.009-.727 0-.033 0-.064-.056-.056-.056-.59-.028-1.057-.032-1.565-.056-.176-.008-.323-.045-.5-.056-1.1-.068-2.4-.107-3.354-.223-.244-.03-.565.009-.727 0-.034 0-.064-.056-.056-.056-2.796-.13-5.604-.278-8.336-.5Zm38.8-2.235v3.743a4.338 4.338 0 0 1-1.509 0 6.939 6.939 0 0 0 0-.838c-.007-.834.006-1.853 0-2.738v-.167Zm-78.878-5.769-.282.014c-.073.009-.077.052-.168.056-.614.029-1.241.021-1.845.056-1.218.072-2.424.134-3.634.167-.622.017-1.229.046-1.845.112-.073.079 0 .1 0 .167a.079.079 0 0 0-.056.056c-.007.057.055.066.056.112.11 2.837-.083 5.854 0 8.6.1.1.254.006.391 0 .554-.023 1.129.017 1.621 0V73.4c.552-.043 1.169-.08 1.621-.111.6-.042 1.107-.073 1.677-.112a4.077 4.077 0 0 1 1.118 0v7.763a19.329 19.329 0 0 0 2.18-.056v-9.219c-.379.034-.739-.045-1.118 0Zm-3.859 2.137a3.84 3.84 0 0 0-1.062.112v6.984a3.978 3.978 0 0 0 1.062.056Zm72.838 2.626h-2.012v4.414a7.017 7.017 0 0 0 .95 0h1.062c.007-1.065-.01-2.421 0-3.464a4.873 4.873 0 0 0 0-.95Zm1.453 0c-.307.028-.732-.062-.95.056.126 1.345.021 2.921.055 4.358.409-.013.56.042.894 0ZM91.16 71.442h-.112v8.269a2.27 2.27 0 0 0 1.006.112c.022-2.268-.029-4.756 0-6.928 0-.169-.045-.417.056-.447a3.222 3.222 0 0 1 .615.112c.187.047.461.059.559.223v7.152a5.2 5.2 0 0 0 .839.056v-7.1c.164.087.548.086.615.168.012.014.093-.006.112 0 .17.048.374.011.447.167v6.816a5.625 5.625 0 0 0 1.286.112c.023-2.026-.031-4.273 0-6.2 0-.123-.053-.284.056-.391a1.947 1.947 0 0 1 .615.112c.2.043.431.007.559.168v6.427c.255-.031.348.1.615.056s.484.1.615 0v-6.258c.322.077.688.108.951.168a.635.635 0 0 1 .279.112v6.09c.255-.031.348.1.615.056.111-.082.054-.244.056-.335.054-2.093-.041-4.239 0-6.258-.113-.007-.281-.053-.336-.056s-.036-.049-.056-.056c-.207-.069-.755-.121-.838-.223-.01-.012-.1 0-.112 0-.092-.011-.123 0-.168-.056s-.248-.048-.28-.056c-.615-.159-1.238-.287-1.844-.447-.4-.106-.82-.236-1.23-.335-.824-.2-1.647-.417-2.46-.614s-1.63-.416-2.46-.615Zm-32.142 7.71c.014-.336-.314-.118-.391-.111-.37.033-.765-.006-1.174 0-1.183.018-2.389.074-3.578.111-2.736.086-5.663.127-8.329.168-.332 0-.927.1-1.006 0-.029-.036-.069.056-.056.056-.4.016-.812 0-1.23 0-.789 0-1.625.052-2.4.056-.823 0-1.5.047-2.348.056-.329 0-1.024-.149-.838.335-.033.145.022.2.168.167 6.969-.242 14.05-.372 21.075-.559.182.058.081-.173.106-.279Zm25.992-9.274h-.168v9.386a2.265 2.265 0 0 0 1.006.112v-8.325c.219.046.6.081.671.168.012.015.092-.007.112 0 .144.054.375.045.447.167v8.1c.39.057.848.047 1.23.112v-8.044c.31.092.664.152.95.223a.6.6 0 0 1 .28.112v7.766a5.794 5.794 0 0 0 1.006.056V71.33a3.2 3.2 0 0 0-.727-.224c-.071-.018-.118-.044-.168-.056-.193-.048-.3-.071-.447-.111-.464-.125-.937-.218-1.4-.335-.367-.094-.73-.216-1.006-.28-.119-.027-.267-.024-.391-.056-.011 0-.013-.045-.056-.055-.373-.094-.672-.151-1.006-.224-.085-.019-.319-.061-.335-.111ZM72.936 66.86c-.065.009-.06.088-.056.168v11.4a3.885 3.885 0 0 0 .838.056c.082-3.258-.108-6.76 0-9.945 0-.076-.054-.217.056-.28a1.862 1.862 0 0 1 .615.168c.012.015.092-.008.112 0 .155.058.345.069.448.167v10a7.793 7.793 0 0 0 .894.056v-8.717A5.016 5.016 0 0 1 75.9 68.7c.175.1.54.132.615.223.011.014.093-.006.111 0 .174.049.359.044.447.167v9.61a2.5 2.5 0 0 0 1.007.112v-9.549c.219.041.405.116.615.167.182.1.505.054.615.224v9.274c.393-.039.614.094 1.007.056.019-2.832-.026-5.9 0-8.66 0-.23-.051-.439.056-.559.1-.039.175.03.279.056s.234.029.336.056v.055c0 .004.093 0 .111 0 .174.049.359.044.447.168v9a5.3 5.3 0 0 1 .839.056 3.74 3.74 0 0 0 .056-1.061c0-2.4-.022-4.954 0-7.263 0-.22-.049-.456.056-.559a4.047 4.047 0 0 1 .615.168c.207.06.468.024.558.223v8.548a1.986 1.986 0 0 0 .559.056c.1-.088.054-.375.056-.5.044-3.023-.033-6.071 0-9.052-.576-.154-1.244-.316-1.733-.447-.035-.009-.077.009-.111 0s-.049-.054-.056-.056c-.224-.068-.349-.058-.559-.112-.569-.145-1.152-.3-1.733-.447-.378-.094-.773-.208-1.062-.279a1.237 1.237 0 0 1-.391-.112c-.011-.013-.093.006-.112 0a36.16 36.16 0 0 0-.615-.167c-.164-.041-.157-.021-.28-.056-.249-.069-.475-.1-.727-.167-.106-.027-.219-.081-.336-.112-.232-.062-.488-.11-.727-.167-.952-.237-1.999-.55-2.907-.734Zm-34.1-.279c-.435-.025-.721.1-1.174.056v12.292a4.846 4.846 0 0 0 1.174-.056Zm5.31-.335a1.871 1.871 0 0 0-.615.056c-.3.026-.615-.02-.839 0-.748.067-1.616.116-2.348.167a6.54 6.54 0 0 0-1.006.112v12.292c2.016-.025 3.81-.059 5.87-.111V67.531c-.223-.149-.847.141-1.062-.056Zm2.627 1.173h-.5c-.065.009-.061.088-.056.168v9.945a6.6 6.6 0 0 0 0 1.061c.072.279.28.13.5.112.11-.062.053-.2.056-.28.125-3.673-.094-7.406 0-11.007Zm9.59-1.968-.254.013c-.073.009-.077.052-.168.056-.446.021-.906.023-1.342.056-.228.017-.442.04-.671.056a1.642 1.642 0 0 0-.671.056 6.3 6.3 0 0 1-.056 1.341c-.267.022-.749-.054-.838.056-.01.012-.095 0-.112 0-.251.036-.443-.064-.615.056V77.2a6.436 6.436 0 0 0 .056 1.4c1.272-.026 2.57-.06 3.857-.111a8.454 8.454 0 0 0 1.565-.056V65.464c-.34.031-.663-.041-1.006 0Zm12.435.907c-.065.009-.061.088-.056.167.062 2.347-.08 5.759 0 8.381.008.258.045.471.056.726.023.524-.023 1.71 0 2.291 0 .083-.062.195-.056.224 0 .007.047.015.056.056s-.019.12 0 .167c.064.159.309 0 .5.056.175.047.106-.171.112-.223.011-.11 0-.245 0-.336.089-3.21-.107-6.6 0-9.721 0-.093-.057-.214.056-.279.509.087 1.143.049 1.621.167v10.224c-.07.171.065.143.168.168.188.046.515 0 .447-.168a1.716 1.716 0 0 1 0-.447c0-.1-.043-.126-.056-.223a12.027 12.027 0 0 1 0-1.564c0-3.067.006-6.152-.056-9.107-.906-.208-1.871-.361-2.79-.559Zm-18.054.842c.034-.272-.169-.161-.279-.167-.064 0-.086.048-.168.056-.63.057-1.584.035-2.236.112v11.23c.956.044 1.75-.077 2.683-.056Zm8.217-1.9c-.183-.017-.143.049-.279.055-.43.023-.964-.061-1.118.168.08.006 0 .038 0 .056a4.811 4.811 0 0 0 0 .615c-.05 3.786-.03 7.752 0 11.454a5.281 5.281 0 0 1 0 .726 7.429 7.429 0 0 0 1.453.056V66.916a8.32 8.32 0 0 0-.056-1.616Zm8.609 1c-.191-.043-.14.048-.279.056-.669.04-1.452.079-2.069.111-.036 0-.062.057-.056.056a17.031 17.031 0 0 0-2.124.168c-.035 3.964.1 7.762.056 11.733h2.292v-10.39a5.505 5.505 0 0 1 .783-.056 4.307 4.307 0 0 1 .894-.056v10.5h.783c.055-1.993-.056-4.116-.056-6.146v-4.633a6.4 6.4 0 0 0 0-1.173c-.045-.152-.007-.12-.224-.17Zm-7.379-4.246c-.065.009-.061.088-.056.167V78.37h2.236V62.391a12.156 12.156 0 0 0 1.453-.112c.186-.016.463.057.5-.056-1.39-.04-2.724-.141-4.133-.167Zm10.4 6.416-.057.009h-.111v7.543c0 .635-.052 1.276 0 1.844.013.15-.093.5.223.447.1-.088.054-.375.056-.5.045-3.059-.033-6.146 0-9.163q.05-.218-.168-.167Zm-3.973 0-.053.011h-.112v.167c.072 3-.1 6.239 0 9.163.007.2-.087.5.112.5.1.007.131-.056.112-.167V68.7c-.013-.1.056-.28-.112-.223Zm-22.246 7.665a1.353 1.353 0 0 1 0 .838c-1.226-.033-2.345.041-3.522.056v-.782c.1-.026.2.034.335 0 .025-.006.069-.056.056-.056s.211.139.28.056.075 0 .168 0c.043 0 .094-.053.168-.056.721-.029 1.779.047 2.515-.056Zm11.795-.447v.783c-1.081.149-2.493-.034-3.578.111v-.838c1.254.042 2.354-.068 3.578-.056Zm-11.74-6.369v.844c-.037.128-.35-.019-.391.105v5.587c-.839.13-1.96-.022-2.8.112v-5.475c-.1-.173-.171-.03-.391-.056v-.894c1.184-.083 2.39-.144 3.578-.223Zm66.521 4.358h-2.8v2.067h2.8Zm-6.932-8.157c-1.887.022-3.448.074-5.2.167v3.073c.058.172.224.2.335.28.078.058.179.165.224.167.191.01.111.714.111 1.006v.894c.509.087.862.33 1.4.391v-.615c0-.22-.049-.457.056-.559a.9.9 0 0 1 .224.056c.041.023.122.137.168.167a1.21 1.21 0 0 1 .279.224c.015.018.091-.014.112 0 .083.058.087.163.168.167.065 0 .025.036.056.056.185.12.392.155.5.336v.894c-.152.176-.419.224-.5.5a7.081 7.081 0 0 0 0 1.453v1.508h2.012a1.339 1.339 0 0 0 0-.5c-.071-2.767 0-5.7 0-8.381a5.411 5.411 0 0 1 .056-1.284Zm1.4-.056h-.782a.153.153 0 0 0-.112.168v10.056h.894ZM56.055 68.7c.2-.053.078.22.112.335v.447c.051.219-.295.04-.335.168v5.754c-1-.03-1.839.1-2.851.056v-5.638c.009-.158-.344.046-.335-.112v-.838c1.154-.041 2.311-.072 3.409-.172ZM42.3 70.492c-.062-.111-.3.068-.5 0a4.531 4.531 0 0 0-.056 1.173v2.515a4.96 4.96 0 0 0 .056 1.229h.5Zm72.279 3.52h-3.018v1.061h3.018ZM54.1 69.76l-.056.006c-.18-.012-.236.1-.447.056a4.95 4.95 0 0 0-.056 1.229v3.855h.615V72.28c0-.744.067-1.64 0-2.291 0-.044.066-.272-.112-.223Zm18.838-5.3c-.065.009-.06.088-.056.167a8.569 8.569 0 0 0 .056 1.565c.006.081.093.04.168.056 1.138.247 2.223.583 3.3.838a1.271 1.271 0 0 0 .336.056c.05 0 .043.053.056.056a1.6 1.6 0 0 0 .391.056c.051 0 .042.052.056.056a5.118 5.118 0 0 0 .839.167c.05 0 .043.053.056.056.3.075.6.153.894.223a3.974 3.974 0 0 0 .559.112 1.5 1.5 0 0 1 .335.111 2.708 2.708 0 0 0 .559.112c.052 0 .04.051.056.056a1.483 1.483 0 0 0 .391.056c.052 0 .04.052.056.056a2.836 2.836 0 0 0 .615.112c.05 0 .043.053.056.056.137.034.32.026.447.056 0 0 .021.045.056.056.088.027.166.039.224.056.095.029.159.03.224.056a.225.225 0 0 0 .056 0c.048 0 .045.054.055.056.17.038.276.032.336.056a.666.666 0 0 0 .279.056c.051 0 .042.053.056.056.139.036.3.021.447.056v.056c.028.028.182-.009.224 0v.056c.029.029.181-.01.223 0v.056c.028.028.182-.008.224 0a5.753 5.753 0 0 1 .571.172l.155.052c.088.026.166.038.224.055.095.029.159.03.224.056a.209.209 0 0 0 .056 0c.049 0 .046.054.056.056.089.02.192-.022.28 0 .006 0 .019.045.056.056.088.027.166.038.223.056.088.026.167.038.224.056.088.026.166.038.223.055.083.026.172.043.224.056.229.057.465.073.559.167.029.03.181-.011.223 0 .258.066.58.179.727.224.083.025.171.043.224.056.035.008.077-.01.111 0 .538.14 1.054.261 1.565.391 1.176.3 2.347.6 3.522.894s2.342.613 3.522.894c.895.213 1.786.462 2.628.67.129.032.28.082.447.111s.409.149.391-.056v-.559c-.085-.171-.378-.2-.448-.223a.668.668 0 0 0-.279-.056c-.053 0-.04-.051-.056-.056-.3-.086-.606-.145-.894-.223-.581-.158-1.148-.341-1.733-.5s-1.155-.333-1.733-.5c-.6-.176-1.2-.326-1.789-.5-.576-.172-1.162-.35-1.732-.5-.605-.162-1.189-.342-1.789-.5a8.719 8.719 0 0 1-.727-.223.212.212 0 0 0-.056 0c-.053 0-.039-.051-.056-.056a1.406 1.406 0 0 0-.391-.056c-.052 0-.041-.052-.056-.056-1.364-.372-2.682-.758-3.969-1.117-.587-.164-1.158-.345-1.733-.5-.316-.087-.751-.2-.95-.28a.221.221 0 0 0-.055 0c-.057 0-.035-.048-.056-.056a1.183 1.183 0 0 0-.336-.056 1.377 1.377 0 0 1-.335-.111c-1.32-.368-2.709-.764-3.969-1.117a6.44 6.44 0 0 1-.5-.168.666.666 0 0 0-.279-.056c-.053 0-.04-.051-.056-.056-.158-.045-.346-.07-.5-.112-.585-.156-1.145-.334-1.733-.5s-1.208-.345-1.801-.525Zm33.541.335v7.543a14.291 14.291 0 0 1 1.509.168 1.267 1.267 0 0 0 .5 0c.035-1.7-.071-3.536.056-5.14-.186-.094-.469-.09-.615-.223v-.447c.033-.116-.069-.367.056-.391 1.143.273 2.253.579 3.41.838-.076.171.092.661-.056.894a3.667 3.667 0 0 0-.5-.112v4.916c.411.074.881.088 1.286.168V66.19c-.475-.085-.931-.219-1.4-.335-.307-.077-.694-.16-.951-.223-.034-.009-.052-.055-.055-.056-.17-.046-.342-.052-.391-.112-.01-.013-.094 0-.112 0-.208-.041-.354-.06-.559-.112-.1-.025-.214-.077-.335-.111-.268-.077-.466-.1-.727-.167a11.169 11.169 0 0 0-1.118-.28Zm3.3 2.905v.168c.085 1.465-.112 3.19 0 4.581 0 .043-.065.272.112.223.072.077.243.055.391.056.083-.01.051-.135.056-.223.087-1.568-.065-3.2 0-4.693-.224 0-.335-.112-.559-.112Zm-73.9 2.961a1.687 1.687 0 0 0-.894 0c-.257.012-.544-.013-.727 0-.095.007-.172.053-.223.056-.6.035-1.251.008-1.789.056-.094.008-.174.053-.224.055-1.444.085-3.112.108-4.416.28-.151.02-.366-.086-.447.112.116.015 0 .123 0 .167s.056.062.056.056c0 .079-.086.095 0 .168 0 .031.045.063.056 0a37.13 37.13 0 0 0 2.851-.112c.474-.035 1.012-.032 1.342-.056.634-.046 1.183-.03 1.733-.056.2-.009.365-.047.559-.055a7.619 7.619 0 0 0 1.118-.056c.349-.106.71.124.95-.056.01-.191-.049-.454.05-.56Zm63.95-1.117a3.284 3.284 0 0 1 .727.223v1.341a4.782 4.782 0 0 0-.727-.167c-.016-.382.021-.878 0-1.229 0-.064 0-.1-.056-.111-.015-.05.017-.056.051-.059Zm-1.509-3.855a14.5 14.5 0 0 0-1.565.056c-.053.092 0 .2 0 .335.013.449-.01.95 0 1.341.07.006.077.07.111.112.015.018.092-.013.112 0 .052.035.1.119.168.168.125.087.368.13.391.335-.209.033-.418.067-.448.279a14.4 14.4 0 0 0 .056 2.011 2.865 2.865 0 0 1 .838.223h.112c.1.029.166.1.223.112.075.019.116.04.168.056s.116-.012.168 0v-2.124c-.076-.2-.283-.276-.336-.5Zm-71.39 4.244c-.267-.043-.36.087-.615.056v.611a2.331 2.331 0 0 0 .671-.056c-.018-.201.048-.491-.056-.611Zm1.118-.055c-.175.011-.41-.038-.5.055-.127.078-.021.389-.056.559.092.076.326-.045.559 0Zm1.118-.112c-.231-.007-.35.1-.615.056v.614a1.619 1.619 0 0 0 .615-.056c.069-.097-.042-.371.001-.614Zm1.118-.056c-.19.015-.453-.043-.559.056v.615a1.4 1.4 0 0 1 .559-.056Zm1.174-.111c-.281-.039-.39.095-.671.056v.614c.222-.021.536.051.671-.055Zm66.018-1.062a3.388 3.388 0 0 0 .783.223 3.486 3.486 0 0 1 0 .726 4.5 4.5 0 0 1 0 .782 4.728 4.728 0 0 0-.783-.167ZM32.52 69.542h-.559v.671c.244.039.315-.1.559-.056Zm1.118-.056c-.131-.1-.356.058-.615 0v.614c.206-.018.495.048.615-.056Zm1.062-.112a1.4 1.4 0 0 0-.5.056c-.128.1-.021.426-.056.615.223.018.31-.1.559-.056Zm1.174-.055c-.131-.1-.356.058-.615 0a1.791 1.791 0 0 0-.056.559.893.893 0 0 0 .671 0Zm59.152-2.251-.066.016a3.628 3.628 0 0 1-.783.279v2.123a2.15 2.15 0 0 0 .448.168 1.053 1.053 0 0 1 .168.055.2.2 0 0 0 .056 0c.053 0 .039.051.055.056.157.047.213.029.28.056a1.371 1.371 0 0 0 .559.111V67.81c-.12-.123-.174-.31-.336-.391-.131-.217-.239-.414-.447-.335Zm-.457.687c.243.111.539.169.783.28v1.453a4.787 4.787 0 0 1-.783-.167 1.007 1.007 0 0 1 0-.391 7.385 7.385 0 0 1 0-1.176Zm-1.789-1.508a5.185 5.185 0 0 0-1.006.335v2.291c.277.1.57.148.839.223a3.979 3.979 0 0 0 .838.224v-2.236c-.1-.054-.053-.142-.111-.223a1.233 1.233 0 0 0-.224-.167c-.025-.237-.264-.258-.335-.448Zm-.615.782a2.857 2.857 0 0 1 .894.279v1.508a6.585 6.585 0 0 1-.894-.167c-.018-.454.024-1.052 0-1.453 0-.064 0-.1-.056-.112-.009-.048.023-.053.057-.056ZM88.2 64.235c-.264 0-.318.2-.448.335-.254.085-.5.4-.671.5-.059.036-.065.072-.112.111-.248.207-.533.4-.783.615-.118.1-.212.235-.335.335-.057.047-.168.07-.224.112-.025.019-.031.089-.056.112-.043.04-.121.017-.168.056s-.1.109-.168.167c-.128.115-.232.234-.336.335-.029.029-.233.063-.111.167a4.684 4.684 0 0 1 1.006.224 1.782 1.782 0 0 0 .391.111c.052 0 .041.052.056.056.121.033.273.028.391.056.141.034.257.076.391.112.242.065.486.16.727.224.122.032.273.024.391.056.013 0 .012.045.056.056.164.041.157.021.279.056.754.212 1.492.4 2.236.614.063-.006.088.081.112 0-.035 0-.067-.008-.056-.056a2.242 2.242 0 0 0-.224-.391 2.517 2.517 0 0 0-.168-.279c-.028-.037-.094-.081-.112-.112-.06-.1-.055-.24-.112-.335-.014-.023-.093-.032-.112-.056-.033-.044-.031-.128-.056-.167s-.09-.073-.111-.112c-.033-.061-.026-.118-.056-.167-.056-.093-.112-.192-.168-.28-.021-.034-.091-.073-.111-.112-.033-.062-.026-.118-.056-.167 0-.008-.048.006-.056 0s.011-.092 0-.112-.09-.077-.112-.111c-.062-.1-.11-.185-.168-.28-.034-.056-.021-.1-.056-.167-.017-.031-.091-.077-.111-.111-.135-.215-.3-.516-.392-.67a2.542 2.542 0 0 0-.168-.28 1.259 1.259 0 0 1-.168-.279.356.356 0 0 1-.051-.166Zm-.9 1.005c.047-.01.053.022.056.056.045.011.055.056.111.056a2.4 2.4 0 0 0 .335.614c.116.187.219.374.336.559.034.054.079.069.112.112s.019.111.056.168c.024.037.091.078.112.112.052.083.1.167.168.279.027.047.024.111.056.167.022.039.091.078.112.112a.269.269 0 0 1 .056.167c-1.149-.23-2.12-.637-3.243-.894-.041-.118.071-.075.112-.112.064-.056.172-.193.28-.279.074-.059.153-.109.223-.167.116-.1.249-.216.392-.335.059-.049.106-.118.168-.168s.124-.016.168-.056c.028-.026.105-.217.223-.224a.283.283 0 0 0 .167-.167Zm8.888.5c-.4.024-.9.051-1.286.056-.149 0-.339-.05-.447.056a.972.972 0 0 1 .279.223c.046.043.113.019.168.056.026.017.03.092.056.112.044.033.129.031.168.056s.075.029.111.056.072.086.112.111c.143.094.31.188.447.28.009.006-.007.047 0 .055s.092-.014.112 0c.1.068.229.305.335.168-.108-.064-.054-.242-.056-.336-.006-.379.041-.667.003-.89Zm-8.72-1.676c-1.159.09-2.375.122-3.577.167.091.84.145 1.718.279 2.514.057.069.148-.04.168-.056s.031-.088.056-.112c.043-.04.121-.017.168-.056.088-.071.142-.219.224-.223.142-.007.3-.33.391-.335.11-.006.129-.162.224-.167.065 0 .025-.035.056-.056a3.325 3.325 0 0 0 .335-.279c.275-.229.565-.447.839-.67.028-.023.026-.089.056-.112.049-.037.124-.022.168-.056.026-.02.031-.088.056-.112.043-.04.121-.017.168-.056.066-.054.1-.167.168-.223s.203-.04.223-.165Zm-16.268.282a6.531 6.531 0 0 0 0 1.844c.131.017.21.088.391.056v-1.788a2.087 2.087 0 0 0-.391-.112Zm10.509-1.4c-.353.131-.715.254-1.062.391v2.291c.543.22 1.2.325 1.733.559v-2.4a10.094 10.094 0 0 0-.668-.837ZM58.906 64.29c-.071.019-.078.051-.168.056-1.738.087-3.517.23-5.31.335-2.207.129-4.481.268-6.652.391-.342.019-.815.024-1.118.056-.87.092-1.914.154-2.851.223-.675.051-1.388.079-1.957.112h-.335c-.109.007-.226.051-.335.056-.7.032-1.4.024-2.013.112-.131.018-.547-.122-.5.223a.254.254 0 0 0 .056.167c.026.033.074-.054.056-.056a4.68 4.68 0 0 0 1.006-.056c.458-.031.937-.031 1.4-.055 1.335-.072 2.814-.191 4.081-.28.472-.033 1.189-.042 1.509-.112a1.253 1.253 0 0 1 .168 0 23.214 23.214 0 0 0 2.572-.167 1.2 1.2 0 0 1 .168 0c.415-.03.727-.031 1.062-.056.369-.028.85-.022 1.174-.056.073-.007.124-.053.168-.056.924-.054 1.873-.068 2.795-.112v-.056c.022-.027.24 0 .28 0 1.334-.052 2.525-.134 3.8-.223a1.523 1.523 0 0 0 .28-.056c.366-.045.858.174.783-.335-.064.002-.074-.045-.119-.055Zm11.068-.167v1.787a1.265 1.265 0 0 0 .5.112v-1.787a2.112 2.112 0 0 0-.5-.112Zm-5.758-.056c-.445-.035-.723.1-1.174.056v1.844c.127.111.312-.059.559 0a1.721 1.721 0 0 0 .615-.111Zm1.174-.112c-.23-.044-.287.086-.5.056v1.844h.447a12.7 12.7 0 0 0 .053-1.9Zm1.23-.056h-.559v1.9a.961.961 0 0 0 .559-.112Zm2.219-.005-.151.005v1.732a1.082 1.082 0 0 0 .615.167v-1.787a1.051 1.051 0 0 0-.615-.112Zm-1.045-.106c-.2 0-.441-.031-.5.112v1.788h.447a12.653 12.653 0 0 0 .053-1.9Zm13.248 0c.049-.034.1-.068.111 0a5.747 5.747 0 0 1 .839.223v1.62a11.004 11.004 0 0 1-.95-.224Zm14.87 1.285a5.182 5.182 0 0 0-1.007 0 3.859 3.859 0 0 1-.782.056 3.408 3.408 0 0 1-.615 0c-.034.1.124.155.224.223a.84.84 0 0 0 .335.168 2.946 2.946 0 0 0 .5-.056c.272-.018.619.019.95 0 .354-.021.8.1.671-.335-.033-.108-.194-.053-.277-.056Zm2.4-.112a14.5 14.5 0 0 1-1.565.056v.391c.579.039.986-.094 1.565-.056Zm5.543-.238-.065.015c-.92.118-2.087.026-3.13.111-.146.012-.259.05-.391.056-.289.013-.666-.032-.95 0-.074.008-.122.052-.168.056a.064.064 0 0 0-.056-.056c-.061 0-.03.045-.056.056-.126.055-.3 0-.223.279.119.142.339.056.5.056.851 0 1.838-.059 2.571-.112.617-.045 1.228-.016 1.677-.056.179-.016.494.082.447-.112-.1-.065.03-.365-.224-.279Zm-25.329-2.891h-.112c-.322.162-.715.253-1.062.391v2.458a15.556 15.556 0 0 0 1.844.5v-2.455c-.177-.345-.475-.569-.671-.894Zm33.149 2.4c-.143.043-.257-.219-.335-.056.054.012.051.048.056.112.016.226-.012.55 0 .783a.362.362 0 0 1 .279.056Zm-6.261.447h-.559c-.042.144-.414-.041-.391.167.087.015.039.123 0 .168.218.117.642.028.95.056ZM44.371 62.95H44.2c-.012.051-.047.055-.112.056-2.09.026-4.508.3-6.429.391v1.62c1.69-.088 3.419-.223 5.031-.335.278-.019.573-.041.839-.056a2.465 2.465 0 0 0 .838-.056Zm66.32.891h-.078v.95a1.251 1.251 0 0 1 .335.112v-.95c-.117-.032-.159-.139-.335-.111ZM77.8 62.67c.363.047.611.209.95.279v1.732c-.359-.033-.592-.191-.95-.223Zm32.119.834h-.087v1.005a.909.909 0 0 0 .391.112V63.62c-.177.009-.187-.148-.391-.111Zm-62.976-.723c-.18-.012-.236.1-.447.056v1.62h.391a9.852 9.852 0 0 0 .056-1.675Zm62.1.391v1.118a.919.919 0 0 1 .391.112v-1.061c-.14-.047-.219-.153-.391-.168Zm-60.819-.447c-.19.015-.453-.044-.559.056-.043.012-.065.047-.056.112v1.453c.158.129.349-.064.615 0Zm1.286-.056h-.559v1.62c.19-.015.453.043.559-.056Zm1.342-.112c-.281-.039-.39.095-.671.056v1.62a2.332 2.332 0 0 0 .671-.056Zm23.981-1.844c-.36.143-.749.257-1.118.391v2.57c.636.184 1.234.406 1.9.559v-2.624c-.126-.124-.222-.258-.335-.391a1.286 1.286 0 0 1-.335-.447c-.053 0-.063-.046-.108-.056Zm18 2.179c-.207-.04-.24.1-.447.056a4.819 4.819 0 0 0 .056 1.173c.176.027.2-.1.391-.056Zm15.373-.056v1.173c.207-.033.324.172.447.056v-1.06a1.48 1.48 0 0 0-.447-.168Zm-16.323.168a10.1 10.1 0 0 0-1.118.056c-.092 0-.273-.05-.336.056a1.368 1.368 0 0 1 .336.224c.124.082.272.143.391.223.019.012.04.093.056.112s.092-.014.112 0c.056.04.1.123.168.168a.558.558 0 0 0 .112.056c.129.007.14.229.279.168Zm-32.869-.95c-.4.014-.791.035-1.174.056-.147.008-.288.046-.447.056-.616.038-1.107.028-1.677.056-.1 0-.178.044-.28.056-.4.046-.742.032-1.062.056a11.669 11.669 0 0 0-1.4.112v1.62c1.97-.173 4.041-.245 6.037-.391Zm34.882.782c-.19.015-.453-.043-.559.056v1.117a1 1 0 0 0 .559-.056Zm1.006-.056h-.5v1.173c.175-.011.41.038.5-.056Zm1.007-.112c-.217-.03-.273.1-.5.056V63.9h.5Zm11.515-.168a5.821 5.821 0 0 0 .056 1.285c.171-.04.164.1.335.056V62.67a3.283 3.283 0 0 1-.389-.17Zm-10.453.112c-.248-.044-.335.074-.559.056v1.173h.559Zm-28.285-.168v.726c.916.258 1.933.415 2.907.615v-.835c-.988-.148-1.97-.3-2.907-.5Zm29.459.112c-.1-.069-.371.043-.615 0a5.543 5.543 0 0 0-.056 1.229h.671Zm1.006-.112c-.161.007-.366-.031-.447.056-.034 0-.067.009-.056.056v1.173c.175-.011.41.038.5-.056Zm1.007-.056c-.175.011-.41-.038-.5.056v1.229h.5Zm-66.913-.223c-.153.052-.238.172-.391.223v1.285c.183-.022.247-.163.391-.223.008-.31-.01-.745 0-1.006.009-.168.075-.269.002-.276Zm40.919-.559a8.667 8.667 0 0 1 1.006.279v1.735c-.263.08-.632-.175-1.006-.167Zm27.056.67c-.225-.039-.319.054-.5.056-.054.068 0 .208 0 .335a5.553 5.553 0 0 0 0 .95 1.2 1.2 0 0 0 .5-.056Zm.895-.056h-.391v1.341c.182.032.26-.038.391-.056Zm4.416-.112v1.341c.191.014.268.141.5.112v-1.226c-.148-.094-.355-.129-.5-.223Zm-3.41.056h-.5v1.341c.23.044.287-.086.5-.056Zm-35.385.5c-.829 0-1.644.062-2.348.112-.562.04-1.081.069-1.621.112-.262.021-.567-.082-.783.112a1.21 1.21 0 0 0 .056.5c.756-.1 1.6-.1 2.4-.167-.012 0 .033-.049.056-.056a.814.814 0 0 1 .168 0c.593-.033 1.072-.051 1.565-.112.142-.017.463.088.5-.167Zm36.39-.614c-.041.126-.313.022-.447.056-.067.053 0 .133 0 .223.016.387-.012.795 0 1.117.175-.012.41.038.5-.056v-1.222c-.007-.044.004-.111-.051-.112Zm1.288-.05c-.206.018-.495-.048-.615.056-.044.012-.065.047-.056.112V63.4a3.36 3.36 0 0 1 .671-.055Zm-66.68-8.726-.065.01a8.025 8.025 0 0 1-1.006.112v9.331c.451.041.729-.091 1.174-.056v-4.75c0-1.38.084-2.9 0-4.19-.014-.213.1-.516-.168-.447Zm6.308-.828a.6.6 0 0 1-.168.056c-.907.127-1.84.209-2.8.335-.917.121-1.863.219-2.739.391v9.386c.972-.009 1.947-.1 2.907-.168.506-.034 1.021-.033 1.509-.056v-.056c0-.003.095 0 .112 0 .361-.052.706-.026.95-.056.1-.012.251.025.335-.056V52.5c-.048 0-.061-.044-.106-.054Zm5.478 1.508a.905.905 0 0 0-.391.056c-.966.135-2 .218-2.907.335a3.133 3.133 0 0 0-.95.168v3.911c0 1.132-.1 2.427 0 3.464.007.07-.091.4.168.335.211.032.154-.187.168-.28a4.437 4.437 0 0 0 0-.5c.04-1.9 0-3.938 0-5.755a3.021 3.021 0 0 1 .056-.95c1.3-.1 2.484-.311 3.8-.391.082 2.343-.109 4.938 0 7.207 0 .092-.092.377.112.391.107-.117.053-.251.056-.391.055-2.485-.042-5.021 0-7.431-.005-.089.008-.195-.112-.169Zm9.783-3.3c-.012-.068-.062-.034-.111 0v10.62a14.1 14.1 0 0 0 2.292.223c.076.007.111.045.224.056.247.025.424.038.559.056.558.072 1.018.022 1.509.111a1.025 1.025 0 0 1 0-.391c.053-2.558-.033-5.291 0-7.766 0-.185-.046-.463.056-.5a.5.5 0 0 1 .279.112.735.735 0 0 0 .168 0c.053 0 .039.051.056.056a2.232 2.232 0 0 1 .559.167.7.7 0 0 0 .168 0c.053 0 .039.051.056.056.107.032.179.026.279.056.171.051.33.119.5.167.2.057.489.082.559.167.011.014.093 0 .112 0 .123.034.268.076.391.112.17.05.332.117.5.168a1.188 1.188 0 0 1 .5.167v7.766c.507.033.955.126 1.509.112v-8.382a5.3 5.3 0 0 1-.671-.168c-.055 0-.036-.049-.056-.056a1.868 1.868 0 0 0-.28-.056c-.038-.01-.048-.054-.056-.056-.2-.062-.307-.059-.5-.112-.11-.03-.23-.078-.335-.112-.2-.062-.4-.128-.559-.168-.038-.009-.048-.053-.056-.056-.222-.068-.45-.1-.671-.168-.3-.095-.762-.274-1.006-.335-.072-.018-.119-.043-.168-.056-.069-.017-.075-.01-.112-.056-.012-.015-.092.007-.112 0a8.668 8.668 0 0 0-.5-.168c-1.695-.511-3.367-1.064-5.086-1.562Zm4.975 3.352c-.012-.068-.062-.034-.111 0v.112c.09 2.3-.12 5.093 0 7.375 0 .049.053.045.056.056.013.056-.053.043-.056.056-.012.062.045.033.056.056.036.081.022.146.168.112.2 0 .107-.257.112-.335.008-.136 0-.315 0-.447.032-2.025-.026-4.209 0-6.146 0-.169-.045-.417.056-.447a.82.82 0 0 1 .28.056.665.665 0 0 1 .28.112s.229.058.223.056c.165.051.3.063.335.111.013.016.092-.009.112 0s-.006.049 0 .056a.813.813 0 0 0 .279.056c.055 0 .037.05.056.056.2.063.41.018.559.168v6.76c-.026.194.3.032.335.167.2 0 .107-.257.112-.335.136-2.271-.1-4.618 0-6.816-.962-.265-1.846-.611-2.852-.835Zm-15.529.824-.067.014c-.581.127-1.3.116-1.845.28v6.816c.645-.088 1.522-.093 2.012-.167v-5.304a12.329 12.329 0 0 0 0-1.341c-.009-.072.065-.36-.168-.28Zm7.2-3.9c-1.752.224-3.484.466-5.255.671v10.231a80.708 80.708 0 0 0 2.739-.112c.057 0 .065-.045.112-.056a1.259 1.259 0 0 1 .168 0c.415-.03.706-.031 1.062-.056a10.53 10.53 0 0 0 1.342-.112v-5.363c0-1.547.092-3.239 0-4.693-.009-.132.106-.478-.168-.503Zm38.57 7.375c-1.322.019-2.569.114-3.857.168v3.3c.4.023.646-.1 1.062-.056.01-.755-.013-1.676 0-2.347 0-.077-.049-.283.056-.335h1.62v2.57c.09.083.28-.048.5 0h.615Zm-36.5-7.6c-.533-.03-.874.132-1.4.112a21.289 21.289 0 0 0-.056 2.458c0 2.3-.012 4.783 0 6.984 0 .261-.05.754.056.838.034.028-.055.072-.056.056 0 .115-.023.235.056.335.428-.075.976-.03 1.4-.112Zm37.341 7.6v3.073c.6-.071 1.288-.054 1.845-.167v-2.57c-.645-.082-1.174-.279-1.845-.335ZM44.2 54.513c.215.065.069.489.112.726-.255-.032-.348.1-.615.056v4.749c.146.15.534-.03.615.056-.021.221.051.535-.056.67-1.261.025-2.346.226-3.578.28v-.671c.249.044.335-.074.559-.056v-4.748c-.1-.133-.438-.031-.559 0 .023-.238-.054-.576.056-.726 1.173-.055 2.258-.183 3.354-.28.067-.006.104-.001.112-.056Zm-1.9.894h-.391a.282.282 0 0 0-.168.167v3.576a4.53 4.53 0 0 0 .056 1.173c.216.03.273-.1.5-.056ZM55.943 53.4c.2-.053.078.22.112.335v.391c-.19.015-.453-.043-.559.056v4.749c.077.128.389.021.559.056v.67c-1.2.109-2.42.189-3.578.335-.107-.135-.036-.449-.056-.67.1-.122.457.01.559-.112v-4.753c-.077-.128-.389-.021-.559-.056v-.67a59.604 59.604 0 0 0 3.522-.331Zm-1.845.832-.056.006a1.2 1.2 0 0 1-.5.056v4.856a1.625 1.625 0 0 0 .615-.056v-2.458c0-.708.064-1.563 0-2.179 0-.044.066-.272-.112-.224Zm38.012 2.52c-.194-.045-.215.083-.391.056v1.173c.182.033.26-.038.391-.056Zm1.621-.056c-.211-.043-.268.068-.448.056a4.869 4.869 0 0 0 .056 1.173c.176.027.2-.1.391-.056Zm-.783 0c-.207-.04-.24.1-.448.056v1.173h.448Zm1.677 0h-.448v1.173h.391a4.867 4.867 0 0 0 .056-1.173Zm.839-.056h-.447v1.173h.447ZM51.08 51.775a3.009 3.009 0 0 0-1.174.056c-.15.021-.331.031-.447.056-.051.011-.069.05-.112.056-.415.057-.82.065-1.23.112v.056c-.047.058-.479 0-.5 0-.04 0-.057.056-.056.056a14.718 14.718 0 0 0-1.789.223v1.285c1.762-.194 3.459-.454 5.255-.615a6.065 6.065 0 0 0 .053-1.285Zm9.112-2.514v.726a6.46 6.46 0 0 1 .614.223c.106.036.221.015.336.056.024.008.081.1.112.111s.079-.008.112 0 .046.053.056.056c.108.035.239.029.335.056.115.032.218.073.335.111.148.049.322.15.391.168s.118.044.168.056c.069.017.074.01.112.056.011.014.093-.005.112 0 .073.021.116.039.168.056l1.006.336c.424.142.851.31 1.286.447.089.028.239.026.335.056.017.005.009.044.056.056.072.018.119.044.168.056.069.017.074.01.112.056l.168.056c.034.008.078-.012.112 0 .1.035.166.1.224.112.571.143 1.124.378 1.621.5.133.033.22.083.335.112.04.01.045.052.056.056.206.07.453.127.615.168.039.01.047.053.056.056.108.034.24.026.335.056.017.005.009.044.056.056.072.018.118.044.168.056.072.018.118.044.168.056.072.018.118.044.168.056.072.018.118.044.168.056.141.035.134.065.279.056v-.447c-.018-.089-.078-.09-.168-.112-.133-.033-.22-.083-.335-.111-.043-.011-.042-.051-.056-.056-.223-.082-.444-.141-.671-.223-.632-.229-1.326-.468-1.9-.67a2.28 2.28 0 0 1-.671-.28c-.012-.015-.092.007-.112 0-.293-.11-.6-.19-.838-.279-.1-.037-.167-.1-.224-.112s-.074-.01-.112-.056c-.012-.015-.092.007-.112 0-.1-.038-.167-.1-.224-.112s-.118-.043-.168-.056c-.072-.018-.119-.044-.168-.056-.072-.018-.119-.044-.168-.056-.072-.018-.119-.044-.168-.056-.072-.018-.118-.044-.168-.056-.069-.017-.074-.01-.111-.056l-.168-.056c-.072-.018-.118-.044-.168-.056-.072-.018-.119-.044-.168-.056s-.079.012-.112 0-.081-.1-.111-.112a1.067 1.067 0 0 0-.28-.056c-.045-.012-.039-.049-.056-.056-.179-.071-.326-.053-.5-.111-.019-.007-.007-.044-.056-.056-.033-.008-.081.013-.112 0s-.077-.1-.111-.112a1.461 1.461 0 0 0-.28-.056c-.043-.011-.042-.05-.056-.056-.355-.131-.667-.215-1.006-.336a2.625 2.625 0 0 0-.783-.223Zm-1.23.049-.056.006c-7.081.986-14.125 2.011-21.186 3.017-.124.007-.024.237-.056.335-.039.186.116.09.168.056.8-.1 1.716-.2 2.46-.28.077-.008.119-.05.168-.056.715-.087 1.547-.144 2.124-.28a2.03 2.03 0 0 1 .391 0c.077-.008.119-.049.168-.056 1.785-.228 3.547-.421 5.311-.671 1.784-.252 3.569-.436 5.31-.67a23.58 23.58 0 0 0 1.4-.223 1.373 1.373 0 0 1 .168 0c.391-.037.694-.063 1.062-.112.445-.059.884-.108 1.342-.167a9.084 9.084 0 0 0 1.286-.223v-.335c-.034-.115.09-.388-.112-.335Zm11.068.23v2.235c.177-.006.382.247.5.112-.081-.022-.007-.073 0-.167a12.975 12.975 0 0 0-.056-2.067c-.178-.008-.246-.127-.447-.112Zm-1.174-.5v2.235a1.548 1.548 0 0 0 .5.223v-2.237c-.121-.122-.344-.14-.5-.224Zm-29.4-.335c-.586.158-1.314.176-1.9.335v1.676c0 .22-.049.457.056.559.009-.091.137-.04.223-.056.58-.106 1.216-.176 1.733-.28v-2.181c-.06 0-.068-.045-.116-.058Zm28.286-.112v2.291a3.88 3.88 0 0 1 .448.168v-2.294a1.48 1.48 0 0 1-.448-.167Zm-27-.112c-.132.073-.386.024-.5.112v2.235c.265.041.384-.063.615-.056-.012-.563.017-1.269 0-1.788-.014-.205.079-.506-.119-.505Zm1.4-.167c-.154-.112-.39.065-.615.056v2.291c.205-.037.425-.059.615-.112Zm24.484-.167v2.291c.183 0 .214.159.447.112v-2.183c-.115-.108-.311-.136-.447-.223Zm-23.031-.112c-.245.053-.538.058-.783.112 0 .579-.005 1.284 0 1.788 0 .224-.05.449.056.559.007-.124.237-.024.335-.056.072-.077.243-.055.391-.056Zm1.342-.223a1.723 1.723 0 0 0-.615.112 4.044 4.044 0 0 0-.056 1.117 4.467 4.467 0 0 0 .056 1.173c.265.041.385-.063.615-.056Zm20.509-.112v2.291c.036.007.077-.009.112 0s.04.049.056.056c.107.042.219.056.335.112V47.92a2.418 2.418 0 0 0-.5-.223Zm-19.313-.112H46.1c-.117.088-.371.039-.5.112v2.347c.244.039.315-.1.559-.056v-2.35c0-.034-.008-.066-.056-.056Zm1.537-.223c-.347-.03-.52.113-.839.112v2.343a5.194 5.194 0 0 0 1.062-.112c.044-.012.111 0 .112-.056-.094-.022-.262.055-.335-.056a4.278 4.278 0 0 1 0-1.118Zm16.43-.171v2.291a2.561 2.561 0 0 1 .671.224v-2.292c-.259-.039-.412-.184-.671-.223Zm-15.093-.056a1.989 1.989 0 0 0-.671.112v2.35c.137.082.472-.023.671-.056Zm1.23-.223c-.244-.039-.315.095-.559.056v2.458c.224.019.31-.1.559-.056Zm1.509-.223a5.223 5.223 0 0 0-.839.112v2.458c.311-.007.515-.119.839-.112Zm11.124.056v2.179a1.223 1.223 0 0 0 .559.223v-2.235a1.912 1.912 0 0 0-.559-.167Zm-9.839-.28a1.982 1.982 0 0 0-.559.056 4.885 4.885 0 0 0-.056 1.229v1.285a4.188 4.188 0 0 0 .614-.111Zm1.286-.223c-.244-.039-.315.095-.559.056 0 .63-.005 1.4 0 1.956 0 .238-.049.5.056.614.009-.091.137-.041.223-.056a.869.869 0 0 1 .28-.056Zm7.379 0v2.235a3.785 3.785 0 0 1 .5.224v-2.292c-.194-.03-.3-.149-.5-.167Zm-6.093-.223a4.238 4.238 0 0 0-.615.112v2.458c.114.073.453 0 .615-.056Zm3.3-.559h-.112c-.776.192-1.7.237-2.46.447v1.285a4.884 4.884 0 0 1-.056 1.229 16.978 16.978 0 0 0 2.627-.391Zm1.509.28c0 .071-.072.077-.056.167-.03.05.054.1.056.112.009.056-.053.042-.056.056-.01.05.055.051.056.056.006.086-.062.192-.056.223s.054 0 .056.056c.009.238.008.677 0 .838 0 .035-.056.063-.056.056 0 .054.061.07.056.112-.015.129-.115.186 0 .28.05.041-.047.216-.056.223a1.525 1.525 0 0 0 .671.279v-2.236c-.251-.026-.327-.227-.612-.223ZM3.026 33.184c2.75-1.662 5.912-.294 8.252 3.569A10.631 10.631 0 0 1 12.84 41.4a5.089 5.089 0 0 1-.289 2.135 3.566 3.566 0 0 1-1.614 2.136c-.325.2-.645.362-.955.522-.29.15-.565.292-.827.451a20.91 20.91 0 0 0-1.47.965 5.653 5.653 0 0 1-.364.248.239.239 0 0 1-.124.034.429.429 0 0 1-.34-.236.36.36 0 0 1 .066-.511c-.04-.214.135-.36.434-.578a.826.826 0 0 0 .119-.094 2.722 2.722 0 0 0-.492-1.153l-5.31-8.767c-.3-.5-.408-.467-.673-.306a2.392 2.392 0 0 0-.242.176 1.944 1.944 0 0 1-.183.134.392.392 0 0 1-.291.074.442.442 0 0 1-.246-.23.319.319 0 0 1-.026-.249 1.145 1.145 0 0 1 .176-.351 8.864 8.864 0 0 1 2.837-2.616ZM142.5 31.542a.349.349 0 0 1 .269.052 4.012 4.012 0 0 1 .329.24 10.3 10.3 0 0 0 .95.667 15.3 15.3 0 0 0 1.374.772c.078.039.131.066.157.082a.448.448 0 0 1 .185.2c.085.042.137.069.163.085a.425.425 0 0 1 .2.253.351.351 0 0 1-.05.278c-.167.267-.339.211-.848.048l-.03-.01c-.336-.124-.571-.082-.926.484l-4.751 7.569a3.793 3.793 0 0 0-.718 2.135 1.606 1.606 0 0 0 .329.9 2.342 2.342 0 0 0 .207.147 1.572 1.572 0 0 0 1.536.061 4.526 4.526 0 0 0 1.81-1.791l4.169-6.642c.808-1.287.616-1.453.372-1.663-.357-.3-.455-.454-.29-.717a.393.393 0 0 1 .244-.189.5.5 0 0 1 .379.1 1.908 1.908 0 0 1 .206.161 5.016 5.016 0 0 0 .646.477 4.739 4.739 0 0 0 .72.382 1.934 1.934 0 0 1 .268.132.512.512 0 0 1 .185.205 1.492 1.492 0 0 1 .177.092.437.437 0 0 1 .173.595c-.193.307-.452.21-.8.04-.122-.059-.5-.238-.99.546l-4.384 6.986c-1.267 2.019-2.472 2.653-3.486 2.653a2.833 2.833 0 0 1-1.5-.467 5.071 5.071 0 0 1-1.159-.958 3.051 3.051 0 0 1-.849-1.206 3.265 3.265 0 0 1 .551-2.867l5.076-8.087c.271-.431.341-.658.235-.756-.435-.4-.513-.576-.363-.815a.37.37 0 0 1 .234-.174ZM9.535 38.373C7.437 34.91 5.012 33.2 3.5 34.111a1.191 1.191 0 0 0-.295.241c0 .007-.006.014-.007.021a1.445 1.445 0 0 0 .285.956l5.164 8.528c.757 1.25 1.406 1.077 1.888.786a1.5 1.5 0 0 0 .582-.654 3.786 3.786 0 0 0 .05-1.5 11.554 11.554 0 0 0-1.632-4.116ZM132.356 28.9c1.384-1.057 2.769-1.352 3.9-.831a2.722 2.722 0 0 1 .789.552c1.941 1.43 1.747 5.274.35 8.294a11.166 11.166 0 0 1-3.161 4.092 4.626 4.626 0 0 1-2.742 1.087 2.733 2.733 0 0 1-2.176-1.053c-1.672-1.559-1.437-5.186-.107-8.063a11.123 11.123 0 0 1 3.147-4.078ZM17.478 26.164a.488.488 0 0 1 .372-.015.38.38 0 0 1 .216.2.356.356 0 0 1-.055.426c.018.226-.178.364-.45.52a.525.525 0 0 0-.16.147 1.463 1.463 0 0 0 .162.709l3.36 7.5a5.868 5.868 0 0 1 .648 3.436 2.752 2.752 0 0 1-.092.337 2.607 2.607 0 0 1-1.6 1.885 4.537 4.537 0 0 1-1.832.457 2.621 2.621 0 0 1-.636-.076 3.277 3.277 0 0 1-2.086-2.059l-3.917-8.746c-.209-.467-.359-.651-.5-.618-.577.139-.766.106-.882-.152a.353.353 0 0 1 .089-.422.351.351 0 0 1 .211-.337 4.043 4.043 0 0 1 .383-.14 10.346 10.346 0 0 0 1.084-.42c.709-.317 1.15-.566 1.387-.7l.177-.1a.415.415 0 0 1 .326-.024.352.352 0 0 1 .2.193.33.33 0 0 1-.07.419c.019.189-.136.315-.474.582a.992.992 0 0 0-.178.161 1.3 1.3 0 0 0 .154.62l3.64 8.129c.539 1.2 1.495 2.5 2.991 1.828a1.493 1.493 0 0 0 .8-.867c0-.023.011-.045.016-.068a4.542 4.542 0 0 0-.485-2.509l-3.217-7.172c-.623-1.392-.869-1.325-1.18-1.238-.45.13-.633.126-.761-.159a.376.376 0 0 1 .065-.438c-.006-.132.054-.286.307-.4a1.892 1.892 0 0 1 .248-.081 5.045 5.045 0 0 0 .761-.272 4.877 4.877 0 0 0 .713-.383 1.928 1.928 0 0 1 .265-.153Zm118.328 2.877c-.708 0-1.506.724-2.092 1.394a16.385 16.385 0 0 0-2.336 3.7c-.974 2.1-1.853 5.326-1.111 6.533a.922.922 0 0 0 .124.07c1.406.649 3.7-2.593 4.808-4.989.994-2.15 1.889-5.468 1.047-6.6l-.044-.025a.932.932 0 0 0-.396-.083ZM123.841 23.9a.38.38 0 0 1 .555-.239c.112.04.222.092.362.157a11.763 11.763 0 0 0 1.179.486 13.528 13.528 0 0 0 1.409.43c.12.03.2.051.271.075a.489.489 0 0 1 .283.191.27.27 0 0 1 .03.077.455.455 0 0 1 .269.207.391.391 0 0 1-.005.3c-.138.386-.4.322-.823.214-.459-.122-.67 0-.837.468l-3.607 10.114a1.372 1.372 0 0 0-.057.974.839.839 0 0 0 .159.07c.639.206 1.34-.14 2.026-1 .346-.435.562-.746.7-.952.237-.341.334-.483.548-.407a.24.24 0 0 1 .176.257v.02a.292.292 0 0 1 .107.017c.276.1.182.361.04.759l-.955 2.68c-.092.259-.2.5-.459.5a.54.54 0 0 1-.181-.035 12.625 12.625 0 0 1-.594-.237c-.477-.2-1.2-.5-2.433-.937a27.231 27.231 0 0 0-1.67-.529c-.24-.069-.428-.124-.557-.17-.178-.063-.263-.16-.269-.306a.374.374 0 0 1-.238-.195.479.479 0 0 1 .025-.34.4.4 0 0 1 .49-.282c.631.07.761.084 1.063-.764l3.646-10.224a.934.934 0 0 0 .073-.489.778.778 0 0 1-.458-.343c-.223-.109-.371-.259-.268-.547Zm-100.074-.261a3.367 3.367 0 0 1 2.284-.078c.286.109.325.187.835 1.663.408 1.18.539 1.587.38 1.777a.324.324 0 0 1-.259.384c-.241.083-.441-.126-1.2-1.236-1.057-1.55-1.476-1.558-1.916-1.407a1.415 1.415 0 0 0-.869.842q-.471 1.682.908 5.7c1.506 4.361 3.313 5.921 4.436 5.535a1.037 1.037 0 0 0 .649-.775 5.436 5.436 0 0 0-.044-1.494c-.229-1.617-.28-2.028-.165-2.175 0-.278.066-.323.2-.368.409-.14.479.03 1.268 2.317.377 1.09.44 1.431.323 1.76a.906.906 0 0 1-.059.317 3.509 3.509 0 0 1-1.979 1.553 2.938 2.938 0 0 1-.961.158c-1.954 0-4.3-1.82-5.673-5.785a9.687 9.687 0 0 1-.38-6.122 3.573 3.573 0 0 1 2.222-2.566Zm92.194-2.039a.38.38 0 0 1 .539-.275c.115.033.228.077.373.134a11.658 11.658 0 0 0 1.207.408 13.467 13.467 0 0 0 1.435.338c.121.022.206.038.274.057a.411.411 0 0 1 .334.274.345.345 0 0 1 .246.472c-.113.395-.374.347-.808.268-.466-.092-.669.039-.806.521l-2.943 10.325a1.42 1.42 0 0 0-.011.931.769.769 0 0 0 .223.094c.652.163 1.329-.227 1.958-1.13.317-.456.512-.78.641-.995.214-.356.3-.5.52-.442a.251.251 0 0 1 .16.115.3.3 0 0 1 .031.16.341.341 0 0 1 .064.012.25.25 0 0 1 .161.115c.063.113.031.281-.071.639l-.78 2.736c-.078.273-.179.534-.453.534a.562.562 0 0 1-.155-.024 11.456 11.456 0 0 1-.609-.2c-.489-.166-1.228-.417-2.488-.776-.7-.2-1.281-.328-1.7-.421-.243-.054-.433-.1-.564-.133a.4.4 0 0 1-.256-.17.313.313 0 0 1-.035-.143.343.343 0 0 1-.2-.164.479.479 0 0 1 0-.341.4.4 0 0 1 .47-.314c.633.029.765.035 1.012-.83l2.97-10.435a1.016 1.016 0 0 0 .049-.465c-.253-.086-.489-.174-.55-.371a.389.389 0 0 1-.238-.504Zm-82.969-.418a2.771 2.771 0 0 1 2.46.472 4.285 4.285 0 0 1 1.466 2.378 3.976 3.976 0 0 1 .088 1.592 3.094 3.094 0 0 1-1.276 2.335 2.3 2.3 0 0 1 .718.734 75.267 75.267 0 0 1 2.055 3.042c.618.956.929 1.436 1.235 1.585a.71.71 0 0 0 .367.067.325.325 0 0 1 .392.265.318.318 0 0 1-.03.256c0 .012.008.021.012.033a.3.3 0 0 1-.234.4 5.2 5.2 0 0 1-.587.108 5.062 5.062 0 0 0-.563.1 2.5 2.5 0 0 0-.453.167 2.264 2.264 0 0 1-.391.147c-.229.06-.4-.167-.537-.383l-3.527-5.23c-.177-.261-.291-.32-.508-.263a.555.555 0 0 0-.262.124c.006.031.013.064.022.1l1.123 4.263.041.145c.169.554.395.774.776.774.639-.011.852.062.919.319a.363.363 0 0 1-.029.309.369.369 0 0 1-.022.278.339.339 0 0 1-.22.149c-.149.04-.343.075-.568.116a13.411 13.411 0 0 0-2.4.634c-.2.07-.369.13-.538.175a.474.474 0 0 1-.121.017.322.322 0 0 1-.164-.042.423.423 0 0 1-.184-.277.406.406 0 0 1 .044-.336c-.042-.226.065-.4.331-.516a.64.64 0 0 0 .39-.375 1.274 1.274 0 0 0-.042-.273l-2.782-10.535c-.188-.712-.334-.807-.709-.744-.351.052-.6.028-.671-.249a.464.464 0 0 1 .032-.363l.008-.008a.394.394 0 0 1 .316-.429c.209-.055.427-.094.658-.134.286-.051.61-.108.993-.209.42-.11.764-.223 1.128-.341s.758-.248 1.243-.376Zm77.293-1.325.1.015c.14.032.272.074.441.129.295.095.7.224 1.462.4.3.069.661.125.979.175.276.043.514.08.683.12.11.026.3.072.318.265a.288.288 0 0 1 .23.382c-.082.357-.266.346-.673.326a12.98 12.98 0 0 0-.4-.016c-.145-.008-.343.192-.446.64L110.5 33.039a1.482 1.482 0 0 0-.069.49 6.714 6.714 0 0 0 .546.336c.154.083.28.155.292.326a.389.389 0 0 1-.151.743.692.692 0 0 1-.154-.019c-.1-.023-.216-.061-.367-.11a13.566 13.566 0 0 0-1.309-.367 15.451 15.451 0 0 0-1.636-.308c-.133-.018-.231-.031-.328-.053a.32.32 0 0 1-.274-.308c-.139-.051-.265-.174-.2-.464.082-.358.492-.328.646-.317.626.048.781-.028.987-.921l2.378-10.319a1.354 1.354 0 0 0 .05-.651l-.068-.038c-.14-.071-.257-.123-.35-.165-.215-.1-.365-.164-.4-.325a.335.335 0 0 1-.214-.432c.025-.107.126-.346.5-.264Zm-6.722.734c.889-2.138.889-2.139 1.192-2.085.135.024.212.04.267.248.263.058.27.231.378 2.791.059 1.395.147 3.5.32 6.73.045.818.077 1.495.1 2.057a16.493 16.493 0 0 0 .185 2.351c.07.042.135.078.188.1.147.074.286.146.295.33a.333.333 0 0 1 .2.394.32.32 0 0 1-.353.3 1.077 1.077 0 0 1-.184-.019 5.233 5.233 0 0 1-.437-.11 10.87 10.87 0 0 0-.961-.229c-.613-.11-1.1-.153-1.393-.179-.142-.013-.245-.022-.3-.033a.314.314 0 0 1-.255-.177.341.341 0 0 1-.027-.142.288.288 0 0 1-.172-.144.466.466 0 0 1-.015-.266c.043-.239.226-.255.529-.282.1-.009.22-.019.37-.038s.244-.23.265-.351a5.52 5.52 0 0 0-.008-.862c-.011-.293-.026-.69-.044-1.236l-.017-.618a17.037 17.037 0 0 0-.034-.88l-1.96-.349c-.114-.02-.138.008-.485.943l-.109.294c-.318.855-.514 1.361-.634 1.674a4.05 4.05 0 0 0-.181.506.538.538 0 0 0 .012.24 1.1 1.1 0 0 0 .125.1 1.459 1.459 0 0 0 .32.134c.207.069.456.155.458.39a.314.314 0 0 1 .191.351.386.386 0 0 1-.493.331 5.341 5.341 0 0 1-.357-.094c-.247-.069-.585-.164-.826-.207a7.026 7.026 0 0 0-1.039-.117 1.831 1.831 0 0 1-.225-.018.27.27 0 0 1-.236-.3c-.1-.034-.217-.127-.173-.376.055-.3.239-.317.4-.329a1.143 1.143 0 0 0 .313-.058c.3-.106.664-.971 2.027-4.19.3-.7.645-1.521 1.05-2.471a337.44 337.44 0 0 0 1.732-4.103Zm-57.386-2.226a.488.488 0 0 1 .364.07.378.378 0 0 1 .164.247.446.446 0 0 1 0 .212l.008.025c.068.356-.187.461-.555.57a.571.571 0 0 0-.388.56 2.337 2.337 0 0 0 .036.271l1.541 8.073a9.081 9.081 0 0 1 .174 1.674 4.559 4.559 0 0 1-.33 2.1 2.605 2.605 0 0 1-2 1.493 5.68 5.68 0 0 1-1.061.109c-1.647 0-2.628-.92-2.984-2.79l-1.8-9.411c-.1-.5-.2-.717-.344-.717h-.14c-.483-.011-.635-.1-.683-.35a.373.373 0 0 1 .03-.228v-.015a.355.355 0 0 1 .282-.429 4.021 4.021 0 0 1 .405-.048 10.411 10.411 0 0 0 1.152-.159c.762-.145 1.249-.286 1.511-.361.1-.028.163-.046.2-.052a.365.365 0 0 1 .469.284.373.373 0 0 1-.015.23s0 .007 0 .01c.059.309-.1.386-.59.613a.571.571 0 0 0-.4.414 2.26 2.26 0 0 0 .04.338l1.671 8.748c.247 1.295.88 2.774 2.49 2.467a1.571 1.571 0 0 0 1.167-1 3.369 3.369 0 0 0 .229-1.266 6.879 6.879 0 0 0-.119-1.006L45.21 21.31c-.286-1.5-.539-1.487-.864-1.476-.469.022-.645-.024-.7-.33a.449.449 0 0 1 .012-.223v-.017c-.029-.15-.017-.414.391-.495a1.862 1.862 0 0 1 .262-.023 5.02 5.02 0 0 0 .8-.09 4.876 4.876 0 0 0 .78-.207 1.868 1.868 0 0 1 .286-.084Zm47.123.515a3.732 3.732 0 0 1 3.353-1.61 3.369 3.369 0 0 1 2.088.929.539.539 0 0 1 .121.175l.064.061c.21.224.211.311.022 1.867-.192 1.581-.231 1.844-.666 1.791-.114-.014-.2-.08-.268-.272-.189-.09-.278-.444-.448-1.605a4.934 4.934 0 0 0-.446-1.661.785.785 0 0 0-.479-.2c-1.488-.182-2.5 1.878-3.019 6.116-.362 2.988-.088 4.958.473 6.015a1.361 1.361 0 0 0 .926.646c.69.085 1.255-.574 1.716-2.012.645-2 .684-2.071.963-2.037.181.022.283.07.32.3.285.1.245.5-.012 2.619-.142 1.171-.235 1.5-.5 1.743a3.248 3.248 0 0 1-1.973.56 4.036 4.036 0 0 1-.486-.029 3.492 3.492 0 0 1-2.649-1.979 5.972 5.972 0 0 1-.48-.947 10.98 10.98 0 0 1-.531-5.291A10.289 10.289 0 0 1 93.3 18.88Zm-35.385-2.231a3.979 3.979 0 0 1 2.758.568 2.933 2.933 0 0 1 1.1 1.848 4.706 4.706 0 0 1 .145.816 3.122 3.122 0 0 1-1.344 3.143 3.618 3.618 0 0 1 2.471 2.94 5.223 5.223 0 0 1 .145.832c.184 2.039-.783 4.346-2.668 4.517-.335.03-.657.041-1 .052-.421.014-.9.03-1.518.086-.6.054-1.066.129-1.442.189-.241.039-.45.072-.62.087a1.1 1.1 0 0 1-.113.006.359.359 0 0 1-.414-.327.441.441 0 0 1 .009-.134.382.382 0 0 1-.042-.146c-.023-.251.1-.318.334-.44l.134-.072c.508-.28.573-.316.525-.846l-1.024-11.3a.221.221 0 0 0-.271-.183l-.522.047a.306.306 0 0 1-.244-.073.388.388 0 0 1-.114-.264.493.493 0 0 1 0-.11.454.454 0 0 1-.033-.124c-.014-.149.027-.419.457-.541a18.922 18.922 0 0 1 3.291-.571Zm24.5-.355c.122.008.246.029.4.055a10.355 10.355 0 0 0 1.155.137 15.1 15.1 0 0 0 1.579.028h.174a.421.421 0 0 1 .3.131.337.337 0 0 1 .073.173.351.351 0 0 1 .151.319c-.021.314-.2.347-.726.445-.383.056-.571.2-.614.871l-.585 8.917a4.3 4.3 0 0 0 .232 1.918c0 .009.009.019.015.028a1.683 1.683 0 0 0 1.408.8 1.574 1.574 0 0 0 1.382-.676 4.526 4.526 0 0 0 .747-2.44l.513-7.825a3.8 3.8 0 0 0-.057-1.308.612.612 0 0 0-.258-.1l-.124-.028c-.309-.075-.448-.159-.471-.354a.336.336 0 0 1-.148-.345.393.393 0 0 1 .125-.282.5.5 0 0 1 .379-.1 2.023 2.023 0 0 1 .256.044 4.98 4.98 0 0 0 .8.115 4.706 4.706 0 0 0 .817-.007 1.87 1.87 0 0 1 .3-.011.455.455 0 0 1 .423.329.387.387 0 0 1 .166.344c-.024.362-.3.4-.68.412-.135.007-.551.027-.612.951l-.54 8.229a5.883 5.883 0 0 1-1.037 3.351 2.557 2.557 0 0 1-2.076.949c-.079 0-.159 0-.24-.008-1.581-.1-2.576-.683-3.006-1.754a3.891 3.891 0 0 1-.362-2.126l.625-9.527a2.524 2.524 0 0 0-.007-.537l-.017-.008c-.51-.131-.687-.238-.707-.458a.336.336 0 0 1-.128-.319.372.372 0 0 1 .122-.259.348.348 0 0 1 .253-.074Zm-11.984-.109c.319-.011.472.094.516.378a.667.667 0 0 1 .1.377l.1 2.821c.013.347-.085.527-.29.535-.268.008-.314-.113-.43-.468-.03-.071-.059-.159-.1-.271l-.112-.337a16.739 16.739 0 0 0-.085-.226c-.5-1.313-.971-1.658-2.175-1.617-.772.028-.77.092-.754.5l.165 4.506a.686.686 0 0 0 .267.017c1.246-.046 1.363-.062 1.562-.633l.063-.189c.077-.235.126-.423.165-.571.088-.336.141-.54.381-.548a.283.283 0 0 1 .215.072.443.443 0 0 1 .117.285.7.7 0 0 1 .1.4c.008.213 0 .487 0 .787-.005.353-.011.753 0 1.126.018.486.054.874.086 1.216.023.246.043.458.05.647.012.314.028.745-.333.759-.239.005-.33-.2-.417-.538a3.55 3.55 0 0 1-.14-.489 13.213 13.213 0 0 0-.205-.783c-.166-.444-.373-.461-1.249-.429-.62.023-.62.023-.61.3l.156 4.243a6.717 6.717 0 0 0 .1 1.068 1.054 1.054 0 0 0 .1.218c.172.259.465.356 1.011.336 1.02-.037 1.515-.6 1.893-2.152.058-.235.1-.427.141-.583.162-.678.187-.782.416-.79a.271.271 0 0 1 .206.063.448.448 0 0 1 .1.285c.078.089.1.242.11.538l.115 3.154c.015.391-.114.528-.509.543-.156.005-.354 0-.615 0-.5-.008-1.243-.02-2.378.022-1.151.042-1.779.1-2.283.142-.322.028-.6.053-.924.064h-.045a.481.481 0 0 1-.342-.1.375.375 0 0 1-.1-.271v-.055a.413.413 0 0 1-.066-.222c-.011-.3.078-.423.369-.489.653-.165.781-.321.759-.926l-.4-10.957c0-.083-.009-.151-.017-.214-.074-.13-.21-.186-.469-.233l-.127-.02c-.228-.033-.443-.064-.458-.407a.454.454 0 0 1-.065-.237.363.363 0 0 1 .164-.35.961.961 0 0 1 .432-.083 1.473 1.473 0 0 1 .151 0c.252.014.841.047 2.529-.014a42.687 42.687 0 0 0 2.4-.153c.285-.023.49-.041.659-.047Zm6.287-.278h.031c.159 0 .24.006.346.312a11.171 11.171 0 0 1 .652 2.612 540.16 540.16 0 0 0 1.413 6.587c.177.8.32 1.463.438 2.013.233 1.084.375 1.746.5 2.117a.271.271 0 0 0 .1.105 2.189 2.189 0 0 0 .3.113c.182.058.355.112.354.378a.316.316 0 0 1 .122.283.337.337 0 0 1-.112.274.543.543 0 0 1-.351.087h-.02c-.113 0-.261-.017-.448-.037a10.546 10.546 0 0 0-.987-.07c-.623-.007-1.112.029-1.4.05-.142.011-.252.021-.3.017a.337.337 0 0 1-.248-.092.378.378 0 0 1-.09-.266c-.006 0-.014-.007-.019-.012a.412.412 0 0 1-.09-.3c0-.242.181-.288.476-.364.1-.025.214-.055.358-.1s.2-.266.2-.389a5.5 5.5 0 0 0-.151-.867c-.059-.286-.137-.67-.241-1.2l-.117-.606c-.077-.4-.128-.661-.168-.828a.058.058 0 0 0-.019-.007L75.13 25.7c-.114-.006-.134.031-.324 1l-.061.313c-.174.9-.285 1.431-.353 1.759a3.987 3.987 0 0 0-.1.525c0 .023.006.041.008.062a.8.8 0 0 0 .316.221 1.463 1.463 0 0 0 .338.08c.235.037.527.084.524.376 0 .012-.006.021-.007.034a.287.287 0 0 1 .11.243.385.385 0 0 1-.424.407c-.069 0-.2-.016-.372-.034-.257-.028-.608-.067-.853-.07a7.05 7.05 0 0 0-1.046.054 1.333 1.333 0 0 1-.223.019.268.268 0 0 1-.226-.1.387.387 0 0 1-.062-.244.231.231 0 0 1-.031-.034.385.385 0 0 1-.062-.244c0-.307.184-.351.342-.39a1.142 1.142 0 0 0 .3-.108c.276-.153.5-1.065 1.315-4.459.18-.744.389-1.609.634-2.615.487-2 .817-3.4 1.035-4.337.528-2.252.529-2.254.836-2.249Zm-17.929 7.984c-.075 0-.151 0-.23.011a1.286 1.286 0 0 0-.663.165c-.065.057-.1.144-.078.4l.421 4.649c0 .049.013.089.019.134a1.465 1.465 0 0 0 .321.706 1.112 1.112 0 0 0 .973.287c.881-.08 1.741-1.072 1.51-3.616a6.142 6.142 0 0 0-.073-.534 3.619 3.619 0 0 0-.631-1.434 1.91 1.91 0 0 0-1.569-.768Zm-5.636 1.839.046.005a.19.19 0 0 1 .168.165 1.086 1.086 0 0 1 .006.194.22.22 0 0 1 .021.068 2.19 2.19 0 0 1-.143.9c-.036.116-.06.206-.079.277-.064.236-.09.333-.336.367l-2.846.4a1.193 1.193 0 0 1-.154.014.278.278 0 0 1-.115-.021.227.227 0 0 1-.123-.2.988.988 0 0 1 0-.214c0-.02-.008-.04-.011-.055a2.956 2.956 0 0 1 .159-.978c.029-.11.057-.214.078-.307.038-.167.361-.219.425-.228l2.7-.374.081-.01a.62.62 0 0 1 .169 0Zm-19.3-2.785a1.461 1.461 0 0 0-1.359-.5 1 1 0 0 0-.661.373c-.007.012-.009.028-.015.041a2.126 2.126 0 0 0 .1.585l1.09 4.136c.046.174.085.289.139.322s.16.021.367-.033a1.853 1.853 0 0 0 1.553-1.45 4.937 4.937 0 0 0-.2-1.647 4.021 4.021 0 0 0-1.01-1.826Zm69.625.43-.175.433c-.146.362-.337.837-.59 1.459a70.833 70.833 0 0 1-.644 1.58l1.525.271h.021c.007-.145-.007-.5-.049-1.518l-.079-1.952Zm-27.251-2.751c-.043.184-.1.437-.175.778-.085.381-.2.881-.344 1.537-.2.9-.306 1.369-.37 1.635l1.672.021h.024c-.017-.147-.092-.509-.307-1.545ZM58.181 17.74l-.181.008a.82.82 0 0 0-.633.253.9.9 0 0 0-.082.6l.343 3.785.006.052.006.049a.527.527 0 0 0 .117.259c.07.065.181.081.426.059a1.747 1.747 0 0 0 1.35-.734 3.452 3.452 0 0 0 .4-2.281 4.337 4.337 0 0 0-.055-.4 2.592 2.592 0 0 0-.537-1.132 1.52 1.52 0 0 0-1.341-.51Zm42.5-15.307c.135 0 .273.069.288.193.107.026.2.093.2.2 0 .189-.162.216-.429.237s-.4.193-.4.519v4.311c0 1.538-.721 2.351-2.085 2.351a2.4 2.4 0 0 1-2.076-.744 1.593 1.593 0 0 1-.461-1.222V3.281a1.236 1.236 0 0 0-.017-.225c-.331-.049-.451-.1-.458-.24-.126-.04-.174-.1-.174-.2a.2.2 0 0 1 .224-.189c.084 0 .168.007.275.015.174.013.412.031.8.031.545 0 .907-.026 1.081-.039.062 0 .1-.007.124-.007.191 0 .258.1.258.189.129.026.182.1.182.181 0 .165-.107.186-.462.255h-.018c-.253.04-.381.125-.381.474v4.681a1.747 1.747 0 0 0 .262 1 1.387 1.387 0 0 0 .946.311c.648 0 1.34-.446 1.34-1.7v-4.1a1.728 1.728 0 0 0-.078-.632.747.747 0 0 0-.144-.028c-.282-.031-.4-.063-.411-.219-.128-.031-.19-.081-.19-.2 0-.141.1-.212.3-.212a1.69 1.69 0 0 1 .173.014 4.562 4.562 0 0 0 .557.032 4.39 4.39 0 0 0 .563-.031 1.768 1.768 0 0 1 .212-.009Zm-54.104-.14a2.8 2.8 0 0 1 1.481.346c.12.076.155.126.164.5.011.134.013.336.013.654v.154c0 .68-.027.814-.283.814-.153 0-.242-.151-.477-.808-.341-.955-.61-1.028-.953-1.028-1.033 0-1.548 1.046-1.575 3.189 0 2.4.838 3.479 1.665 3.479.5 0 .832-.379 1.03-1.158.268-1.049.294-1.112.465-1.112.2 0 .259.064.276.594.015.2.016.508.016.967 0 .62-.036.8-.195.94a2.858 2.858 0 0 1-1.611.423c-1.5 0-3.027-1.343-3.027-3.909q0-.217.015-.425c.081-2.143 1.288-3.62 2.996-3.62ZM74.7 2.016a.217.217 0 0 1 .206.214.238.238 0 0 1 .108.213c0 .094-.008.188-.032.468s-.065.755-.13 1.606c-.008.08-.024.243-.178.243-.125 0-.164-.059-.214-.223-.058-.043-.087-.134-.136-.312-.038-.137-.09-.325-.179-.6a2.184 2.184 0 0 0-.081-.213.682.682 0 0 0-.668-.3c-.229 0-.229.048-.229.136v5.889a1.315 1.315 0 0 0 .014.213.445.445 0 0 0 .3.1c.414.022.533.037.533.235a.212.212 0 0 1 0 .026.166.166 0 0 1 .1.18c0 .141-.088.213-.26.213-.068 0-.141-.005-.237-.012a10.888 10.888 0 0 0-.937-.034c-.664 0-1.047.023-1.276.037-.1.006-.164.01-.212.01a.207.207 0 0 1-.236-.213c0-.013.007-.02.008-.031a.192.192 0 0 1-.1-.175c0-.185.155-.2.413-.235.5-.054.537-.1.537-.611V3.125a.58.58 0 0 0-.161-.016c-.416 0-.656.2-1.028.852-.123.229-.2.389-.256.506-.1.21-.135.281-.24.281a.162.162 0 0 1-.166-.178v-.031a.167.167 0 0 1-.085-.157 8.964 8.964 0 0 1 .134-.911l.16-.988c.056-.349.074-.467.266-.467.136 0 .172.118.2.214l.006.018a.392.392 0 0 1 .08.158.273.273 0 0 0 .211.073h3.094a.407.407 0 0 0 .421-.262c.05-.095.111-.201.25-.201Zm4.044.417c.023 0 .053 0 .1.005.174.012.581.041 1.742.041.8 0 1.313-.02 1.655-.033.185-.007.326-.013.443-.013.183 0 .3.036.323.207.087.034.135.107.135.256v1.476c0 .223-.1.27-.189.27-.151 0-.187-.059-.246-.21-.068-.032-.1-.1-.149-.238a6.08 6.08 0 0 0-.173-.424 2.8 2.8 0 0 0-.15-.287 1.354 1.354 0 0 0-1.2-.421c-.554 0-.554.043-.554.252v2.311h.13c.964 0 .972-.015 1.162-.406.058-.121.1-.217.127-.3.068-.17.108-.272.252-.272a.189.189 0 0 1 .2.2c.13.04.13.191.13.261 0 .112-.01.257-.02.41-.012.185-.027.394-.027.59 0 .253.015.457.029.636.01.129.018.24.018.341 0 .154 0 .387-.225.387-.128 0-.185-.086-.231-.225-.092-.055-.13-.191-.178-.376-.021-.08-.045-.172-.078-.276s-.051-.167-.075-.229c-.117-.093-.318-.1-.763-.1s-.45.008-.45.148v2.22a2.181 2.181 0 0 0 .065.639.93.93 0 0 0 .679.175c.718 0 1.079-.286 1.38-1.1l.111-.3c.124-.338.146-.4.282-.4s.177.079.186.211c.121.028.135.14.135.317v1.659c0 .229-.115.271-.341.271-.107 0-.243-.005-.422-.012-.34-.014-.855-.034-1.636-.034s-1.228.017-1.576.03c-.221.009-.412.016-.633.016-.143 0-.306-.023-.306-.2a.336.336 0 0 1 0-.034.169.169 0 0 1-.116-.172c0-.179.081-.222.25-.246.491-.08.561-.173.561-.472V3.247a.877.877 0 0 0-.007-.114.866.866 0 0 0-.255-.071l-.088-.013c-.161-.022-.288-.04-.289-.222a.172.172 0 0 1-.114-.182c-.001-.213.211-.213.397-.213Zm-20.893 0c.106 0 .247.02.247.189a.176.176 0 0 1-.013.049.164.164 0 0 1 .056.133c0 .163-.151.2-.4.258-.277.055-.312.087-.312.288V9.245c.045.081.138.14.334.21.055.019.1.032.142.044.125.035.223.062.223.223a.191.191 0 0 1-.01.062.186.186 0 0 1 .054.144c0 .178-.191.178-.283.178-.062 0-.117 0-.191-.012a8.823 8.823 0 0 0-.914-.035c-.422 0-.707.019-.914.033-.11.007-.195.013-.26.013a.205.205 0 0 1-.214-.224.215.215 0 0 1 .013-.062.234.234 0 0 1-.047-.144c0-.179.11-.191.4-.223.217-.029.363-.132.363-.541V6.294a.134.134 0 0 0-.088-.025h-2c-.088 0-.124.036-.124.125V9.226c.045.087.162.129.461.228l.07.021c.111.033.227.068.227.2a.254.254 0 0 1-.017.093.148.148 0 0 1 .049.112c0 .224-.2.224-.283.224s-.177-.007-.3-.015a9.967 9.967 0 0 0-.772-.031c-.45 0-.76.021-.964.035l-.084.007c-.057 0-.1.006-.139.006-.126 0-.248-.016-.248-.2a.216.216 0 0 1 .015-.079.2.2 0 0 1-.037-.126c0-.16.1-.185.3-.239l.021-.005c.363-.1.417-.164.417-.5V3.205a.206.206 0 0 0-.164-.146 1.031 1.031 0 0 0-.214-.039c-.133-.015-.283-.031-.283-.183a.258.258 0 0 1 .014-.083.144.144 0 0 1-.036-.1c0-.1.047-.223.27-.223.088 0 .178.006.292.014.187.013.443.032.855.032.5 0 .773-.02.97-.034.068 0 .127-.009.186-.012l.062.006a.171.171 0 0 1 .153.172.212.212 0 0 1-.013.068.163.163 0 0 1 .045.113c0 .163-.108.181-.271.207-.08.013-.179.029-.311.062-.2.048-.267.157-.267.451V5.6a.128.128 0 0 0 .095.029h1.993c.088 0 .124-.036.124-.124V3.182c-.042-.077-.129-.1-.314-.12-.241-.029-.391-.079-.391-.236a.2.2 0 0 1 .013-.065.165.165 0 0 1-.047-.116.223.223 0 0 1 .247-.212c.043 0 .1 0 .176.01.17.013.453.036.96.036a8.359 8.359 0 0 0 .876-.034c.078-.007.135-.012.203-.012Zm6.2-.139c.133 0 .183.014.313.4.076.188.177.533.363 1.172.208.713.523 1.79 1.029 3.435.128.416.231.76.317 1.046.1.339.178.595.243.788s.137.289.212.315a1.866 1.866 0 0 0 .212.058c.126.029.235.054.235.2a.189.189 0 0 1-.013.057.152.152 0 0 1 .088.149c0 .157-.122.19-.306.19-.076 0-.177-.007-.306-.016-.19-.013-.426-.03-.683-.03-.431 0-.768.022-.969.035-.1.006-.165.011-.205.011-.144 0-.214-.066-.214-.2a.141.141 0 0 1 .011-.042.18.18 0 0 1-.078-.162c0-.128.1-.149.31-.191.066-.014.148-.031.248-.054a.207.207 0 0 0 .15-.206A2.347 2.347 0 0 0 64.9 8.8l-.177-.624-.086-.318c-.034-.127-.061-.224-.083-.3s-.052-.077-.088-.077h-1.455c-.1 0-.11 0-.238.532l-.04.164c-.111.468-.183.746-.227.919a4.76 4.76 0 0 0-.056.23.562.562 0 0 0 .24.13 1.345 1.345 0 0 0 .241.041c.17.019.346.039.346.191a.229.229 0 0 1-.016.082.139.139 0 0 1 .078.124c0 .064-.026.213-.271.213-.04 0-.132-.007-.246-.015-.178-.013-.42-.031-.591-.031a6.3 6.3 0 0 0-.724.035c-.064.007-.11.011-.148.011a.161.161 0 0 1-.178-.178.212.212 0 0 1 .012-.061.164.164 0 0 1-.066-.145c0-.161.111-.183.218-.2a1 1 0 0 0 .213-.061c.195-.085.325-.518.873-2.344.117-.39.253-.843.414-1.37.318-1.048.533-1.786.675-2.275.342-1.18.342-1.18.532-1.18Zm25.17 0c.1 0 .155.007.233.187.135.032.192.227.531 1.391.208.712.523 1.789 1.029 3.434.128.415.231.759.317 1.045a10.719 10.719 0 0 0 .36 1.1h.007a1.937 1.937 0 0 0 .212.058c.126.029.235.053.235.2a.2.2 0 0 1-.006.026c.095.026.168.063.168.18 0 .157-.122.19-.306.19-.076 0-.177-.007-.306-.016-.189-.013-.425-.03-.683-.03-.431 0-.768.022-.969.035-.1.006-.165.011-.2.011-.144 0-.214-.066-.214-.2v-.013a.172.172 0 0 1-.156-.193c0-.128.1-.149.31-.191.067-.013.148-.03.248-.054a.206.206 0 0 0 .149-.206 2.321 2.321 0 0 0-.111-.448l-.177-.625-.086-.318c-.047-.175-.08-.293-.106-.378h-1.455c-.081 0-.1.044-.214.532l-.039.164c-.111.467-.182.745-.227.917a1.767 1.767 0 0 0-.062.277v.018a.829.829 0 0 0 .158.067 1.311 1.311 0 0 0 .239.046c.17.019.347.039.347.191a.246.246 0 0 1-.006.048c.088.025.154.066.154.158 0 .064-.026.213-.271.213-.04 0-.132-.007-.246-.015-.177-.013-.421-.031-.591-.031a6.371 6.371 0 0 0-.724.035c-.064.007-.11.011-.148.011a.161.161 0 0 1-.178-.178.193.193 0 0 1 .007-.033.156.156 0 0 1-.149-.173c0-.161.111-.183.218-.2a.994.994 0 0 0 .213-.061c.194-.084.325-.518.872-2.341l.414-1.374c.318-1.048.533-1.786.675-2.275.345-1.181.345-1.181.534-1.181ZM63.738 4.7c-.029.085-.076.257-.155.543-.055.2-.126.459-.222.8-.11.407-.178.647-.222.8h1.208c-.012-.074-.067-.263-.216-.775l-.289-1-.093-.326Zm25.212.149-.11.395-.221.8c-.11.408-.179.647-.223.8h1.12c-.012-.073-.066-.258-.211-.758l-.294-1.017ZM64.491 0l1.38 2.092h-.048l.118.18h-.607L64.116 1 62.9 2.272h-.606l.118-.18h-.177L63.613 0Z"/>
</svg>
