<?xml version="1.0" encoding="UTF-8"?><svg id="a" xmlns="http://www.w3.org/2000/svg" viewBox="0 0 100.48 148.56"><defs><style>.b{fill:#050606;}.c{fill:#e6500f;}</style></defs><path class="b" d="m59.49,58.4c4.77,2.62,13.52-6.26,16.92-12.44,2.35-4.27.79-9.64-3.48-11.99-4.27-2.35-9.64-.79-11.99,3.48-3.4,6.18-6.22,18.33-1.45,20.95Z"/><path class="b" d="m50.01,93.94c-3.36-1.85-7.59-.62-9.44,2.74-1.85,3.36-11.68,23.18-6.41,26.06,5.27,2.89,16.74-16,18.59-19.36,1.85-3.36.62-7.59-2.74-9.44Z"/><path class="b" d="m37.27,94.86c1.85-3.36.62-7.59-2.74-9.44-3.36-1.85-7.59-.62-9.44,2.74-.92,1.68-3.83,7.46-5.86,13.18h0c-4.89,12.46-9.1,23.7-15.36,30.75-5.08,5.72-4.52,10.7-2.02,12.72,1.3,1.06,5.03,3.75,5.03,3.75,0,0,5.86-5.37,6.53-12.9.63-7.06,7.96-18,15.86-28.79h0c3.75-4.78,7.07-10.33,8-12.01Z"/><path class="b" d="m93.08,95.84c1.86-.25,3.56-.75,5.02-1.44-6.52-.22-12.88-1.26-19.31-3.47-3.52-1.21-7.05-2.76-10.64-4.73-27.31-14.95-39.53-43.52-27.27-63.81C49.71,7.75,68.89,1.42,89.15,4.65c-.65-.69-1.63-1.42-2.93-2.04-.59-.28-1.25-.54-1.98-.76-2.24-.66-4.7-1.33-8.41-1.65-.58-.06-1.15-.1-1.71-.12C45.99-1.36,25.03,15.29,25.48,38.79c.53,27.92,26.55,53.52,59.63,56.96.6.06,1.21.12,1.8.16.3.03.6.05.89.07.26.01.52.03.77.04.26,0,.53.02.78.02.48.01.93,0,1.38-.01h0c.16,0,.32,0,.48-.02.32-.02.63-.04.95-.07.15,0,.3-.03.44-.04l.46-.06Z"/><path class="c" d="m100.48,92.93c-.68.56-1.48,1.05-2.38,1.47-6.52-.22-12.88-1.26-19.31-3.47-3.52-1.21-7.05-2.76-10.65-4.73-27.31-14.95-39.53-43.52-27.27-63.81C49.71,7.75,68.89,1.42,89.15,4.65c.57.64.88,1.24.88,1.67,0,.05,0,.09-.01.13-27.48-2.03-47.48,14.67-44.98,38,1.86,17.27,15.55,33.45,33.77,42.18,6.72,3.23,14.07,5.43,21.67,6.3Z"/></svg>