<?xml version="1.0" encoding="UTF-8"?><svg id="a" xmlns="http://www.w3.org/2000/svg" viewBox="0 0 351.79 148.56"><defs><style>.b{fill:#050606;}.c{fill:#e6500f;}</style></defs><path class="b" d="m45.47,89h-13.05v-29.08h-14.04v29.08H5.32v-29.08H0v-7.52h5.32v-.71c0-4.49,1.42-7.87,4.26-10.14s6.55-3.4,11.14-3.4c2.51,0,5.27.38,8.3,1.13v9.01c-2.27-.38-4.07-.57-5.39-.57-2.03,0-3.48.37-4.33,1.1-.85.73-1.28,1.9-1.28,3.51v.07h27.45v36.6Z"/><path class="b" d="m56.36,86.69c-3.33-2.29-5-5.62-5-9.97h12.63c0,1.66.61,2.91,1.84,3.76,1.23.85,3,1.28,5.32,1.28,1.75,0,3.09-.26,4.01-.78.92-.52,1.38-1.25,1.38-2.2s-.56-1.68-1.67-2.2c-1.11-.52-2.73-.99-4.86-1.42l-4.11-.78c-4.21-.8-7.57-2.02-10.07-3.65-2.51-1.63-3.76-4.24-3.76-7.84,0-2.27.71-4.29,2.13-6.06,1.42-1.77,3.43-3.14,6.03-4.11,2.6-.97,5.63-1.45,9.08-1.45,6,0,10.6,1.16,13.8,3.48,3.19,2.32,4.79,5.67,4.79,10.07h-11.99c0-1.65-.51-2.93-1.53-3.83-1.02-.9-2.45-1.35-4.29-1.35-1.66,0-2.94.26-3.87.78-.92.52-1.38,1.25-1.38,2.2,0,.99.54,1.75,1.63,2.27,1.09.52,2.7.99,4.82,1.42l4.04.78c2.74.52,5.1,1.16,7.06,1.92,1.96.76,3.61,1.88,4.93,3.37,1.32,1.49,1.99,3.46,1.99,5.92,0,3.88-1.57,6.82-4.72,8.83-3.15,2.01-7.72,3.01-13.73,3.01-6.34,0-11.17-1.15-14.51-3.44Z"/><path class="b" d="m97.21,36.01c1.44-1.46,3.16-2.2,5.14-2.2s3.76.71,5.18,2.13c1.42,1.42,2.13,3.15,2.13,5.18s-.71,3.74-2.13,5.11c-1.42,1.37-3.15,2.06-5.18,2.06s-3.7-.71-5.14-2.13c-1.44-1.42-2.16-3.1-2.16-5.04s.72-3.64,2.16-5.11Zm11.74,16.39v36.6h-13.05v-36.6h13.05Z"/><path class="b" d="m119.77,85.38c-3.76-3.17-5.64-8.16-5.64-14.97,0-4.02.86-7.47,2.59-10.36,1.73-2.88,4.09-5.07,7.09-6.56,3-1.49,6.37-2.23,10.11-2.23,5.3,0,9.61,1.36,12.95,4.08,3.33,2.72,5.24,6.49,5.71,11.31h-12.84c-.33-4.02-2.29-6.03-5.89-6.03-2.13,0-3.74.82-4.82,2.45-1.09,1.63-1.63,4.03-1.63,7.2,0,3.78.56,6.48,1.67,8.09,1.11,1.61,2.71,2.41,4.79,2.41s3.45-.53,4.4-1.6c.95-1.06,1.47-2.78,1.56-5.14h12.84c-.19,3.59-1.17,6.6-2.94,9.01-1.77,2.41-4.04,4.2-6.81,5.36s-5.76,1.74-8.97,1.74c-5.67,0-10.39-1.58-14.15-4.75Z"/><path class="b" d="m160.91,87.58c-2.2-1.7-3.3-4.23-3.3-7.59,0-3.17,1.16-5.72,3.48-7.66,2.32-1.94,5.72-2.91,10.21-2.91h4.75c3.03,0,5.11-.46,6.24-1.38,1.13-.92,1.7-2.02,1.7-3.3,0-1.13-.46-2.1-1.38-2.91-.92-.8-2.35-1.21-4.29-1.21-2.08,0-3.74.5-4.97,1.49-1.23.99-1.96,2.51-2.2,4.54h-12.91c.52-4.92,2.52-8.71,5.99-11.39,3.48-2.67,8.19-4.01,14.15-4.01s10.27,1.22,13.51,3.65c3.24,2.44,4.86,5.83,4.86,10.18v23.9h-12.77v-8.02h-.43c-.9,2.55-2.66,4.72-5.28,6.49-2.62,1.77-5.59,2.66-8.9,2.66s-6.28-.85-8.48-2.55Zm11-5.99c.83.54,1.93.82,3.3.82,2.46,0,4.54-.9,6.24-2.7,1.7-1.8,2.55-4,2.55-6.6v-2.84h-.43c-1.04,3.64-3.71,5.46-8.02,5.46h-1.06c-1.23,0-2.18.31-2.84.92-.66.62-.99,1.44-.99,2.48s.41,1.9,1.24,2.45Z"/><path class="b" d="m217.7,39.34v49.65h-13.05v-49.65h13.05Z"/><path class="b" d="m224.22,101.76v-9.01c2.32.33,3.95.5,4.89.5,1.75,0,3.04-.25,3.87-.74.83-.5,1.48-1.38,1.95-2.66l.35-.99-12.77-36.46h13.97l2.13,7.73c1.56,5.63,3.1,11.75,4.61,18.37h.43c1.94-8.61,3.43-14.8,4.47-18.58l2.06-7.52h13.48l-13.12,37.81c-1.56,4.49-3.72,7.72-6.49,9.68-2.77,1.96-6.35,2.94-10.75,2.94-2.7,0-5.72-.35-9.08-1.06Z"/><path class="c" d="m8.25,117.69c-1.05-.45-1.86-1.08-2.42-1.89-.56-.82-.84-1.78-.84-2.88l2.45.02c.02,1.04.44,1.86,1.27,2.44.83.58,1.96.87,3.38.87,1.28,0,2.27-.22,2.97-.67.69-.45,1.04-1.08,1.04-1.92,0-.71-.3-1.24-.9-1.6-.6-.35-1.46-.65-2.57-.87l-1.68-.34c-1.12-.23-2.06-.49-2.82-.79-.76-.3-1.4-.77-1.9-1.39-.51-.63-.76-1.46-.76-2.51,0-.89.26-1.67.78-2.32.52-.66,1.27-1.16,2.23-1.52.97-.35,2.11-.53,3.42-.53s2.38.22,3.32.67c.94.45,1.68,1.08,2.21,1.9.53.82.79,1.8.79,2.91h-2.45c-.02-1.04-.38-1.87-1.09-2.48-.71-.61-1.66-.92-2.86-.92s-2.14.21-2.83.63c-.7.42-1.04,1-1.04,1.72s.31,1.25.92,1.61,1.5.67,2.66.91l1.68.34c1.1.24,2.03.51,2.78.79s1.37.73,1.86,1.31c.49.59.74,1.38.74,2.36s-.27,1.84-.81,2.56-1.31,1.28-2.31,1.67c-1.01.39-2.18.58-3.53.58-1.42,0-2.66-.22-3.71-.67Z"/><path class="c" d="m23.94,117.58c-.94-.51-1.7-1.25-2.26-2.2-.56-.95-.84-2.05-.84-3.29s.28-2.3.84-3.23,1.32-1.65,2.27-2.17c.95-.51,1.98-.77,3.08-.77s2.13.26,3.08.77c.95.51,1.71,1.24,2.28,2.18.57.94.85,2.01.85,3.22s-.28,2.34-.85,3.29c-.57.95-1.32,1.69-2.27,2.2-.94.51-1.98.77-3.1.77s-2.15-.26-3.09-.77Zm.29-2.29c.7.77,1.64,1.16,2.8,1.16s2.12-.39,2.82-1.16c.7-.77,1.05-1.84,1.05-3.2s-.35-2.37-1.05-3.13c-.7-.76-1.64-1.13-2.82-1.13s-2.1.38-2.8,1.13c-.7.76-1.05,1.8-1.05,3.13s.35,2.43,1.05,3.2Z"/><path class="c" d="m37.76,117.82c-.65-.35-1.16-.86-1.52-1.52-.36-.66-.54-1.42-.54-2.3v-7.71h2.29v6.98c0,.95.27,1.71.8,2.27.54.56,1.26.84,2.17.84,1.01,0,1.82-.37,2.43-1.1.6-.73.91-1.71.91-2.94v-6.05h2.29v11.7h-2.18l-.11-2.86h-.14c-.32,1.03-.84,1.82-1.56,2.38s-1.6.84-2.63.84c-.82,0-1.55-.18-2.2-.53Z"/><path class="c" d="m48.82,106.29h2v-3.06h2.27v3.06h3.27v1.56h-3.24v6.71c0,.63.12,1.08.37,1.35.25.26.68.4,1.28.4.5,0,1.03-.08,1.59-.23v1.75c-.68.2-1.33.29-1.95.29-1.29,0-2.2-.25-2.75-.75-.55-.5-.83-1.35-.83-2.56v-6.96h-2v-1.56Z"/><path class="c" d="m59.25,116.74c-1.07-1.07-1.61-2.62-1.61-4.65,0-1.27.24-2.37.73-3.3.48-.93,1.17-1.64,2.06-2.13.89-.49,1.92-.74,3.08-.74,1.07,0,2.04.25,2.9.74.86.49,1.54,1.17,2.03,2.04.49.87.74,1.86.74,2.96,0,.2-.02.49-.04.88h-9.25c.02,1.24.37,2.21,1.05,2.9.69.7,1.58,1.04,2.66,1.04.86,0,1.58-.24,2.17-.73.58-.48.96-1.1,1.12-1.86h2.2c-.12.91-.44,1.69-.95,2.36-.51.67-1.17,1.18-1.96,1.54-.79.36-1.65.54-2.57.54-1.83,0-3.28-.54-4.35-1.61Zm7.64-5.62c-.06-1.03-.39-1.84-1-2.44s-1.41-.9-2.43-.9-1.85.29-2.51.87c-.66.58-1.02,1.4-1.08,2.46h7.01Z"/><path class="c" d="m71.84,106.29h2.2l.11,2.86h.14c.32-1.03.84-1.82,1.56-2.38s1.6-.84,2.63-.84c.82,0,1.54.18,2.19.53.64.36,1.15.86,1.51,1.52.36.66.54,1.42.54,2.3v7.71h-2.27v-7.12c0-.97-.25-1.7-.74-2.21-.49-.51-1.23-.76-2.21-.76s-1.83.37-2.44,1.1c-.61.73-.92,1.71-.92,2.94v6.05h-2.31v-11.7Z"/><path class="c" d="m86.31,102.03c.28-.29.62-.43,1.03-.43s.73.14,1.01.42c.28.28.42.62.42,1.03s-.14.73-.42,1.01c-.28.28-.62.42-1.01.42s-.75-.14-1.03-.42-.42-.62-.42-1.01.14-.73.42-1.02Zm2.17,4.26v11.7h-2.29v-11.7h2.29Z"/><path class="c" d="m91.95,106.29h2.22l.07,3.63h.09c.27-1.3.79-2.26,1.54-2.88.76-.62,1.87-.93,3.33-.93v2c-1.63.06-2.83.45-3.6,1.16-.48.44-.83,1.02-1.04,1.75-.21.73-.32,1.63-.32,2.7v4.29h-2.29v-11.7Z"/><path class="c" d="m107.61,117.24c-.94-.74-1.41-1.75-1.41-3.02,0-1.06.35-1.97,1.05-2.74.7-.77,1.67-1.31,2.91-1.61l.02-.09c-.88-.89-1.49-1.66-1.84-2.3-.35-.64-.52-1.29-.52-1.94,0-.73.18-1.38.56-1.97.37-.59.89-1.05,1.56-1.39.67-.34,1.44-.51,2.3-.51s1.58.16,2.26.48c.67.32,1.2.76,1.58,1.33.38.57.57,1.21.57,1.92,0,.89-.33,1.7-.97,2.43-.65.73-1.62,1.22-2.9,1.5l-.02.14,3.33,3.74c.41-.94.62-1.95.63-3.04h2.2c-.09,1.84-.54,3.41-1.36,4.69l2.79,3.15h-2.81l-1.34-1.5c-.67.6-1.42,1.07-2.26,1.38s-1.72.48-2.64.48c-1.53,0-2.76-.37-3.7-1.11Zm1.59-1.73c.54.54,1.31.81,2.31.81,1.3,0,2.41-.45,3.33-1.34l-4.15-4.67c-.77.35-1.35.81-1.73,1.39-.39.58-.58,1.19-.58,1.83,0,.79.27,1.45.82,1.98Zm1.39-8.55c.28.46.84,1.11,1.69,1.96,1.44-.85,2.15-1.95,2.15-3.31,0-.56-.2-1.04-.59-1.43s-.91-.59-1.54-.59-1.19.2-1.56.59-.57.87-.57,1.43c0,.44.14.89.42,1.35Z"/><path class="c" d="m127.68,102.12h6.51c1.71,0,3.08.4,4.1,1.19,1.03.79,1.54,2.05,1.54,3.78,0,1.06-.25,1.96-.75,2.71-.5.75-1.18,1.31-2.04,1.69-.86.38-1.83.57-2.9.57h-4.04v5.94h-2.43v-15.87Zm6.03,7.98c1.12,0,2.01-.23,2.68-.7.67-.47,1-1.22,1-2.27,0-1.96-1.22-2.95-3.67-2.95h-3.6v5.92h3.6Z"/><path class="c" d="m142.19,106.29h2.22l.07,3.63h.09c.27-1.3.79-2.26,1.54-2.88.76-.62,1.87-.93,3.33-.93v2c-1.63.06-2.83.45-3.6,1.16-.48.44-.83,1.02-1.04,1.75-.21.73-.32,1.63-.32,2.7v4.29h-2.29v-11.7Z"/><path class="c" d="m151.96,116.74c-1.07-1.07-1.61-2.62-1.61-4.65,0-1.27.24-2.37.73-3.3.48-.93,1.17-1.64,2.06-2.13.89-.49,1.92-.74,3.08-.74,1.07,0,2.04.25,2.9.74.86.49,1.54,1.17,2.03,2.04.49.87.74,1.86.74,2.96,0,.2-.02.49-.04.88h-9.25c.02,1.24.37,2.21,1.05,2.9.69.7,1.58,1.04,2.66,1.04.86,0,1.58-.24,2.17-.73.58-.48.96-1.1,1.12-1.86h2.2c-.12.91-.44,1.69-.95,2.36-.51.67-1.17,1.18-1.96,1.54-.79.36-1.65.54-2.57.54-1.83,0-3.28-.54-4.35-1.61Zm7.64-5.62c-.06-1.03-.39-1.84-1-2.44s-1.41-.9-2.43-.9-1.85.29-2.51.87c-.66.58-1.02,1.4-1.08,2.46h7.01Zm-6.37-7.75l6.42-2.43.63,1.65-6.44,2.34-.61-1.56Z"/><path class="c" d="m162.8,106.29h2.45l1.43,3.79c.32.88.66,1.81,1.04,2.81l.97,2.61h.09c.41-1.13.82-2.24,1.25-3.31l.79-2.11,1.43-3.79h2.38l-4.63,11.7h-2.58l-4.63-11.7Z"/><path class="c" d="m177.06,116.74c-1.07-1.07-1.61-2.62-1.61-4.65,0-1.27.24-2.37.73-3.3.48-.93,1.17-1.64,2.06-2.13.89-.49,1.92-.74,3.08-.74,1.07,0,2.04.25,2.9.74.86.49,1.54,1.17,2.03,2.04.49.87.74,1.86.74,2.96,0,.2-.02.49-.04.88h-9.25c.02,1.24.37,2.21,1.05,2.9.69.7,1.58,1.04,2.66,1.04.86,0,1.58-.24,2.17-.73.58-.48.96-1.1,1.12-1.86h2.2c-.12.91-.44,1.69-.95,2.36-.51.67-1.17,1.18-1.96,1.54-.79.36-1.65.54-2.57.54-1.83,0-3.28-.54-4.35-1.61Zm7.64-5.62c-.06-1.03-.39-1.84-1-2.44s-1.41-.9-2.43-.9-1.85.29-2.51.87c-.66.58-1.02,1.4-1.08,2.46h7.01Z"/><path class="c" d="m189.65,106.29h2.2l.11,2.86h.14c.32-1.03.84-1.82,1.56-2.38s1.6-.84,2.63-.84c.82,0,1.54.18,2.19.53.64.36,1.15.86,1.51,1.52.36.66.54,1.42.54,2.3v7.71h-2.27v-7.12c0-.97-.25-1.7-.74-2.21-.49-.51-1.23-.76-2.21-.76s-1.83.37-2.44,1.1c-.61.73-.92,1.71-.92,2.94v6.05h-2.31v-11.7Z"/><path class="c" d="m204.13,102.03c.28-.29.62-.43,1.03-.43s.73.14,1.01.42c.28.28.42.62.42,1.03s-.14.73-.42,1.01c-.28.28-.62.42-1.01.42s-.75-.14-1.03-.42-.42-.62-.42-1.01.14-.73.42-1.02Zm2.17,4.26v11.7h-2.29v-11.7h2.29Z"/><path class="c" d="m209.76,106.29h2.22l.07,3.63h.09c.27-1.3.79-2.26,1.54-2.88.76-.62,1.87-.93,3.33-.93v2c-1.63.06-2.83.45-3.6,1.16-.48.44-.83,1.02-1.04,1.75-.21.73-.32,1.63-.32,2.7v4.29h-2.29v-11.7Z"/><path class="c" d="m351.79,92.93c-.68.56-1.48,1.05-2.38,1.47-6.52-.22-12.88-1.26-19.31-3.47-3.52-1.21-7.05-2.76-10.65-4.73-27.31-14.95-39.53-43.52-27.27-63.81,8.84-14.64,28.02-20.97,48.28-17.74.57.64.88,1.24.88,1.67,0,.05,0,.09-.01.13-27.48-2.03-47.48,14.67-44.98,38,1.86,17.27,15.55,33.45,33.77,42.18,6.72,3.23,14.07,5.43,21.67,6.3Z"/><path class="b" d="m310.8,58.4c4.77,2.62,13.52-6.26,16.92-12.44,2.35-4.27.79-9.64-3.48-11.99-4.27-2.35-9.64-.79-11.99,3.48-3.4,6.18-6.22,18.33-1.45,20.95Z"/><path class="b" d="m301.32,93.94c-3.36-1.85-7.59-.62-9.44,2.74-1.85,3.36-11.68,23.18-6.41,26.06,5.27,2.89,16.74-16,18.59-19.36,1.85-3.36.62-7.59-2.74-9.44Z"/><path class="b" d="m288.59,94.86c1.85-3.36.62-7.59-2.74-9.44-3.36-1.85-7.59-.62-9.44,2.74-.92,1.68-3.83,7.46-5.86,13.18h0c-4.89,12.46-9.1,23.7-15.36,30.75-5.08,5.72-4.52,10.7-2.02,12.72,1.3,1.06,5.03,3.75,5.03,3.75,0,0,5.86-5.37,6.53-12.9.63-7.06,7.96-18,15.86-28.79h0c3.75-4.78,7.07-10.33,8-12.01Z"/><path class="b" d="m344.4,95.84c1.86-.25,3.56-.75,5.02-1.44-6.52-.22-12.88-1.26-19.31-3.47-3.52-1.21-7.05-2.76-10.64-4.73-27.31-14.95-39.53-43.52-27.27-63.81,8.84-14.64,28.02-20.96,48.27-17.73-.65-.69-1.63-1.42-2.93-2.04-.59-.28-1.25-.54-1.98-.76-2.24-.66-4.7-1.33-8.41-1.65-.58-.06-1.15-.1-1.71-.12-28.14-1.45-49.1,15.2-48.64,38.7.53,27.92,26.55,53.52,59.63,56.96.6.06,1.21.12,1.8.16.3.03.6.05.89.07.26.01.52.03.77.04.26,0,.53.02.78.02.48.01.93,0,1.38-.01h0c.16,0,.32,0,.48-.02.32-.02.63-.04.95-.07.15,0,.3-.03.44-.04l.46-.06Z"/><path class="b" d="m344.27,95.85l-.33.04c-.15.02-.3.04-.45.05-.31.02-.62.04-.95.06-.15.01-.32.02-.48.02h-.01c-.44.01-.89.02-1.37.01.26,0,.5,0,.75-.01,1-.02,1.92-.08,2.84-.17Z"/></svg>