<svg xmlns="http://www.w3.org/2000/svg" viewBox="0 0 333.94 329.37"><path d="M163.67 329.37c-.06-1.11.7-1.83 1.29-2.61 24.59-32.22 48.58-64.9 73.6-96.79 11.78-15.02 24.66-29.03 38.87-41.8.93-.84 2.58-1.47 1.94-3.11-.65-1.65-2.32-.84-3.5-.85-90.44-.04-180.88-.04-271.32-.05-1.53 0-3.11.35-4.56-.49v-38.59c91.9 0 183.8 0 275.7-.03 1.22 0 2.92.75 3.6-.63.92-1.86-.98-2.71-2.07-3.68-20.9-18.45-38.04-40.19-54.76-62.3a213455.5 213455.5 0 0 1-57.1-75.56c-.57-.75-1.48-1.35-1.47-2.83h7.19c12.08 0 24.17.04 36.25-.04 2.06-.01 3.43.49 4.73 2.22 40.21 53.33 80.46 106.64 120.79 159.88 1.51 1.99 1.35 3.17-.05 5.02-36.58 48.3-73.11 96.64-109.64 144.99-4.34 5.74-8.62 11.51-12.93 17.27h-46.57Z"/></svg>
