<?xml version="1.0" encoding="UTF-8"?>
<svg id="Calque_2" data-name="Calque 2" xmlns="http://www.w3.org/2000/svg" viewBox="0 0 51.4 50.27">
  <defs>
    <style>
      .cls-1 {
        fill: #1d1d1b;
      }
    </style>
  </defs>
  <g id="Calque_2-2" data-name="Calque 2">
    <path class="cls-1" d="m0,7.93C0,5.36.68,3.4,2.04,2.04S5.36,0,7.92,0h35.55c2.57,0,4.53.68,5.89,2.04s2.04,3.32,2.04,5.89v34.42c0,2.57-.68,4.53-2.04,5.89s-3.32,2.04-5.89,2.04H7.92c-2.57,0-4.53-.68-5.89-2.04s-2.04-3.32-2.04-5.89V7.93Zm4.39,38.21c.88.87,2.14,1.3,3.76,1.3h35.1c1.66,0,2.93-.44,3.79-1.3s1.3-2.13,1.3-3.79V7.93c0-1.66-.44-2.93-1.3-3.8-.87-.87-2.13-1.3-3.79-1.3H8.15c-1.62,0-2.88.43-3.76,1.3-.88.87-1.33,2.13-1.33,3.8v34.42c0,1.66.45,2.93,1.33,3.79Zm7.1-22.42h3.57l8.04,12.96,13.36-26.15h3.51l-15.23,29.21h-3.11l-10.14-16.02Z"/>
  </g>
</svg>