<svg id="Calque_2" data-name="Calque 2" xmlns="http://www.w3.org/2000/svg" viewBox="0 0 720.82 178.22">
    <defs/>
    <g id="Calque_6" data-name="Calque 6">
        <path d="M688.97 110.82c3.67-3.76 8.06-5.67 13.18-5.67s9.62 1.85 13.23 5.5c3.61 3.65 5.45 8.14 5.45 13.35 0 5.22-1.83 9.65-5.45 13.19-3.61 3.54-8.06 5.33-13.23 5.33s-9.45-1.85-13.18-5.5c-3.67-3.65-5.56-8.02-5.56-13.02s1.83-9.43 5.56-13.19Z"
              style="fill:#e84914"/>
        <path class="cls-2" fill="currentColor"
              d="M116.3 142.53H82.89V67.45H46.98v75.08H13.62V67.45H0V48.03h13.62v-1.85c0-11.62 3.61-20.31 10.9-26.21 7.28-5.89 16.73-8.81 28.46-8.81 6.39 0 13.51.95 21.24 2.92v23.29c-5.78-.95-10.4-1.46-13.79-1.46-5.23 0-8.89.95-11.06 2.86s-3.28 4.94-3.28 9.09v.17h70.21v94.5ZM144.15 136.52c-8.51-5.95-12.79-14.48-12.79-25.76h32.3c0 4.26 1.56 7.52 4.73 9.71 3.17 2.19 7.67 3.31 13.62 3.31 4.45 0 7.9-.67 10.23-2.02s3.56-3.25 3.56-5.67-1.44-4.32-4.28-5.67c-2.84-1.35-7-2.58-12.45-3.65l-10.51-2.02c-10.79-2.08-19.35-5.22-25.8-9.43-6.39-4.21-9.62-10.94-9.62-20.26 0-5.84 1.83-11.05 5.45-15.66s8.78-8.14 15.4-10.61c6.67-2.53 14.4-3.76 23.24-3.76 15.34 0 27.13 2.97 35.3 8.98 8.17 6 12.23 14.65 12.23 26.04h-30.69c0-4.26-1.28-7.58-3.89-9.88-2.61-2.3-6.28-3.48-10.95-3.48-4.23 0-7.51.67-9.9 2.02-2.34 1.35-3.56 3.25-3.56 5.67 0 2.58 1.39 4.55 4.17 5.84 2.78 1.35 6.89 2.58 12.34 3.65l10.34 2.02c7 1.35 13.01 2.97 18.07 4.94 5 1.96 9.23 4.88 12.62 8.7 3.39 3.87 5.06 8.92 5.06 15.32 0 9.99-4 17.62-12.06 22.78s-19.74 7.8-35.14 7.8c-16.23 0-28.57-2.97-37.14-8.87l.11-.06ZM248.73 5.67C252.39 1.91 256.79 0 261.9 0c5.11 0 9.62 1.85 13.23 5.5 3.61 3.65 5.45 8.14 5.45 13.36s-1.83 9.65-5.45 13.19c-3.61 3.54-8.06 5.33-13.23 5.33s-9.45-1.85-13.18-5.5c-3.67-3.65-5.56-8.02-5.56-13.02s1.83-9.43 5.56-13.19Zm30.02 42.31v94.5h-33.41v-94.5h33.41ZM306.43 133.16c-9.62-8.19-14.45-21.04-14.45-38.66 0-10.38 2.22-19.3 6.61-26.77 4.39-7.46 10.45-13.07 18.12-16.95C324.38 46.91 333 45 342.56 45c13.57 0 24.57 3.54 33.13 10.55 8.51 7.01 13.4 16.78 14.62 29.24h-32.86c-.83-10.38-5.89-15.54-15.07-15.54-5.45 0-9.56 2.13-12.34 6.34-2.78 4.21-4.17 10.44-4.17 18.57 0 9.76 1.44 16.72 4.28 20.87 2.84 4.15 6.95 6.23 12.23 6.23s8.84-1.35 11.23-4.1c2.45-2.75 3.72-7.18 4-13.3h32.86c-.5 9.26-3 17.06-7.5 23.29-4.56 6.23-10.34 10.83-17.4 13.8-7.06 2.97-14.73 4.49-22.96 4.49-14.51 0-26.57-4.1-36.19-12.29ZM411.67 138.83c-5.61-4.38-8.45-10.94-8.45-19.58 0-8.19 2.95-14.76 8.89-19.81 5.95-4.99 14.62-7.52 26.13-7.52h12.17c7.73 0 13.06-1.18 15.96-3.59 2.89-2.36 4.34-5.22 4.34-8.53 0-2.92-1.17-5.44-3.56-7.52-2.33-2.08-6-3.09-10.95-3.09-5.34 0-9.56 1.29-12.67 3.87-3.17 2.58-5 6.45-5.62 11.73h-33.02c1.34-12.68 6.45-22.5 15.34-29.4 8.89-6.9 20.96-10.32 36.19-10.32s26.3 3.14 34.58 9.43c8.28 6.28 12.45 15.04 12.45 26.26v61.72h-32.69v-20.71h-1.11c-2.28 6.62-6.78 12.18-13.51 16.78-6.73 4.6-14.29 6.85-22.79 6.85s-16.07-2.19-21.68-6.57Zm28.13-15.49c2.11 1.4 4.95 2.13 8.45 2.13 6.28 0 11.62-2.3 15.96-6.96 4.34-4.66 6.56-10.32 6.56-17.06V94.1h-1.11c-2.67 9.43-9.51 14.08-20.51 14.08h-2.72c-3.17 0-5.56.79-7.28 2.36-1.67 1.57-2.56 3.7-2.56 6.4s1.06 4.94 3.17 6.34l.06.06ZM556.93 14.31v128.22h-33.41V14.31h33.41ZM573.61 175.47v-23.29c5.95.84 10.12 1.29 12.51 1.29 4.45 0 7.78-.62 9.9-1.91 2.11-1.29 3.78-3.59 5-6.85l.89-2.58-32.69-94.16h35.75l5.45 19.98c4 14.53 7.95 30.36 11.79 47.42h1.11c4.95-22.22 8.78-38.21 11.45-47.98l5.28-19.42h34.47l-33.58 97.64c-4 11.62-9.51 19.92-16.62 25.03-7.06 5.05-16.23 7.58-27.52 7.58-6.89 0-14.62-.9-23.24-2.75h.06Z"/>
    </g>
</svg>
